<mxfile host="app.diagrams.net" modified="2023-10-28T14:05:41.701Z" agent="Mozilla/5.0 (Macintosh; Intel Mac OS X 10_15_7) AppleWebKit/537.36 (KHTML, like Gecko) Chrome/118.0.0.0 Safari/537.36" etag="HNDXkYB7i4WlrQClMva2" version="22.0.8" type="github">
  <diagram name="Page-1" id="ftOgtGpvmZD1sLAJWag7">
    <mxGraphModel dx="906" dy="617" grid="1" gridSize="10" guides="1" tooltips="1" connect="1" arrows="1" fold="1" page="1" pageScale="1" pageWidth="827" pageHeight="1169" math="0" shadow="0">
      <root>
        <mxCell id="0" />
        <mxCell id="1" parent="0" />
        <mxCell id="0CfnM0hkbXZemsLm9H7N-1" value="&lt;div&gt;Thing to Process&lt;/div&gt;" style="rounded=0;whiteSpace=wrap;html=1;fontColor=#FFFFFF;fillColor=#E35500;strokeColor=#E35500;fontSize=16;shadow=1;" vertex="1" parent="1">
          <mxGeometry x="360" y="40" width="290" height="60" as="geometry" />
        </mxCell>
        <mxCell id="0CfnM0hkbXZemsLm9H7N-2" value="&lt;div style=&quot;&quot;&gt;&lt;div style=&quot;&quot;&gt;&lt;div&gt;&lt;div&gt;&lt;font color=&quot;#000000&quot;&gt;Integration of thing or machine data for triggering a business process step.&lt;/font&gt;&lt;/div&gt;&lt;div&gt;&lt;font color=&quot;#000000&quot;&gt;&lt;br&gt;&lt;/font&gt;&lt;/div&gt;&lt;div&gt;&lt;br&gt;&lt;/div&gt;&lt;/div&gt;&lt;/div&gt;&lt;/div&gt;" style="rounded=0;whiteSpace=wrap;html=1;fontColor=#FFFFFF;fillColor=#FFFFFF;strokeColor=#E35500;fontSize=16;shadow=1;align=center;verticalAlign=top;" vertex="1" parent="1">
          <mxGeometry x="360" y="100" width="290" height="320" as="geometry" />
        </mxCell>
        <mxCell id="0CfnM0hkbXZemsLm9H7N-3" value="&lt;div&gt;Thing to Analytics&lt;/div&gt;" style="rounded=0;whiteSpace=wrap;html=1;fontColor=#FFFFFF;fillColor=#E35500;strokeColor=#E35500;fontSize=16;shadow=1;" vertex="1" parent="1">
          <mxGeometry x="40" y="40" width="290" height="60" as="geometry" />
        </mxCell>
        <mxCell id="0CfnM0hkbXZemsLm9H7N-4" value="&lt;div&gt;Thing to Data Lake&lt;/div&gt;" style="rounded=0;whiteSpace=wrap;html=1;fontColor=#FFFFFF;fillColor=#E35500;strokeColor=#E35500;fontSize=16;shadow=1;" vertex="1" parent="1">
          <mxGeometry x="680" y="40" width="290" height="60" as="geometry" />
        </mxCell>
        <mxCell id="0CfnM0hkbXZemsLm9H7N-5" value="&lt;div&gt;Thing to Thing&lt;/div&gt;" style="rounded=0;whiteSpace=wrap;html=1;fontColor=#FFFFFF;fillColor=#E35500;strokeColor=#E35500;fontSize=16;shadow=1;" vertex="1" parent="1">
          <mxGeometry x="1000" y="40" width="290" height="60" as="geometry" />
        </mxCell>
        <mxCell id="0CfnM0hkbXZemsLm9H7N-6" value="&lt;div style=&quot;&quot;&gt;&lt;div style=&quot;&quot;&gt;&lt;div style=&quot;&quot;&gt;&lt;font color=&quot;#000000&quot;&gt;Real-time integration of thing or machine data for monitoring and analytics.&lt;/font&gt;&lt;/div&gt;&lt;div style=&quot;font-size: 16px;&quot;&gt;&lt;br&gt;&lt;/div&gt;&lt;/div&gt;&lt;/div&gt;" style="rounded=0;whiteSpace=wrap;html=1;fontColor=#FFFFFF;fillColor=#FFFFFF;strokeColor=#E35500;fontSize=16;shadow=1;align=center;verticalAlign=top;" vertex="1" parent="1">
          <mxGeometry x="40" y="100" width="290" height="320" as="geometry" />
        </mxCell>
        <mxCell id="0CfnM0hkbXZemsLm9H7N-7" value="" style="group" vertex="1" connectable="0" parent="1">
          <mxGeometry x="210" y="250" width="110" height="100" as="geometry" />
        </mxCell>
        <mxCell id="0CfnM0hkbXZemsLm9H7N-8" value="" style="rounded=0;whiteSpace=wrap;html=1;" vertex="1" parent="0CfnM0hkbXZemsLm9H7N-7">
          <mxGeometry y="30" width="110" height="60" as="geometry" />
        </mxCell>
        <mxCell id="0CfnM0hkbXZemsLm9H7N-9" value="&lt;p style=&quot;line-height: 70%;&quot;&gt;&lt;font style=&quot;font-size: 12px;&quot;&gt;Analytical&lt;br&gt;Application&lt;/font&gt;&lt;br&gt;&lt;/p&gt;" style="rounded=0;whiteSpace=wrap;html=1;fillColor=#000000;fontColor=#FFFFFF;fontSize=16;" vertex="1" parent="0CfnM0hkbXZemsLm9H7N-7">
          <mxGeometry width="110" height="30" as="geometry" />
        </mxCell>
        <mxCell id="0CfnM0hkbXZemsLm9H7N-10" value="" style="rounded=0;whiteSpace=wrap;html=1;fillColor=#595959;fontColor=#FFFFFF;align=left;verticalAlign=top;" vertex="1" parent="0CfnM0hkbXZemsLm9H7N-7">
          <mxGeometry x="10" y="40" width="90" height="40" as="geometry" />
        </mxCell>
        <mxCell id="0CfnM0hkbXZemsLm9H7N-11" value="" style="shape=image;verticalLabelPosition=bottom;labelBackgroundColor=default;verticalAlign=top;aspect=fixed;imageAspect=0;image=data:image/png,iVBORw0KGgoAAAANSUhEUgAAAJ4AAACeCAYAAADDhbN7AAAAAXNSR0IArs4c6QAAAIRlWElmTU0AKgAAAAgABQESAAMAAAABAAEAAAEaAAUAAAABAAAASgEbAAUAAAABAAAAUgEoAAMAAAABAAIAAIdpAAQAAAABAAAAWgAAAAAAAADcAAAAAQAAANwAAAABAAOgAQADAAAAAQABAACgAgAEAAAAAQAAAJ6gAwAEAAAAAQAAAJ4AAAAAeonODQAAAAlwSFlzAAAh1QAAIdUBBJy0nQAADL5JREFUeAHtnXuMXUUdx+c+drfsltJuiy2tFajEaknFAJr4akIEQjABtQ9joUQLklRBAwaVxD8QoUr5Q/4RIyg0to2RWlOBRIkkiI+ioTYUBdsA0nbb7Yt23e2W3e59+Z3dndu5Z88999xzzj0z95zvJLMzZ+Y3M7/fZ35nzvOeFYKBBEiABEiABEiABEiABEiABEiABEiABEiABEiABEiABEiABEiABEiABEiABEiABEiABEiABEiABEiABEiABEiABEiABEiABEiABEiABEiABEiABEiABEiABEiABEiABEiABEIRyIRqnZLGlUpFcspOmqtSN+vLk4XlTCZTcRNg2QSB1DgenGdxuVz+Ksy+KpvNXm6bA5RKpR25XG479PolnPaobfpRnzoE4FgXYPIeQ5rYAPvuh3Gz6yBoq+K2XPEA/06sXg9h5TonCtroq4h+NqK/l5DKOCQjVp5TSEMF6HouOpiBOAvx0xjrSoyzNlSnWmP0dwr9rYGuv9OKmY2CAPb0Tc0uY2hzDPGnaPeBKHSIuw/ovVjajTgQwPb1ceubmPEAfMwPcMjth1xXYgz3YQjsnVYsFn05JPiM+ugy3SKA9BMvZ0P9btTLwxaDgwC4XAI+R7z4oe5rjmbp3gSQ77gBA8giyiM5j0sbYXC7GPzKblxR9om08Zhibx0wi6cIsiAwATBe5uQsnTJwhxE0NHpVK2HoNuDKzKg+ui5JzAO3vPld0m0zxdzrLryuX+R57HGvq04B5GlTAJQOaUjBWD5RyeAWTPWCA+zvNmG7sRUGBldXOzpd/FNvmr+xFS9+1BzRJgJWOB4Ou7+yCUrSdQHvfaZttOJQqyDwkKtItCbF4bUTPZ9x9m6CuxUrngIhzzsmQ4cqYxqeAJguklzR0xSnC997sB6scDxcZT3iUH/8cZm81wRe73XUcdMHAXC7TDqbDBB/S28Crjfp26nKTyCZ+KsMhwP+US935gFsQMkynUoAfOSTnroB9XepVrqQKktF6mU46jr0eq88YG5GvbFzVROTBXtnYyd91ouLqgOf0246qnqZutUntqwZwwFvjy7fRP52yM5pR4jQ+z2I32vC1qoonPK5RjZXhZFpJNuKemMrhTRcGdTsVRWafhltn1Ttw6SYpP+h/duIr+CFyheR7oI+/wrTp1tb6HwZyj+CdAXiAuQvxngz3WQDlK2AztuaaQcdAvNvZpx6sm3peG7GgON8xI2YgGvc6pNQBvu2wb5bEN8Naw/6Mup4YfUP3F4arkLgTnw2xDh5xF4csjeoMW1Mod966DUTMefTtMBiuv2BOwnRMDErXggGvppioqZBcO6k8EUujfbJMqxG+13qrCuSjqeUgs6x+0HsAypjTRuu9Ehrapq/FTeQ0zr5ababjpfm2Tdou9WOJw8HMuCk+7hBRhy6BQSsdjxlL+53zZlwwZq/C1U90/YjYLvjef3o50D74abGxgnoa5dfZXDIrfk2it92lJtKIAj/qb0EL+HtlODs2rqldDxlgIn7eLYfahUbpgkjYIXjYec7L2FcrTYHvD9ktYKtVE4u9XrA+dtrrRyPfU8QAOdBnbvMp4qN03i1DTCbUwUiJmPxdam/KsbONCYV7BhGNx7OVu/jMvy9RYjpAuNrdc4qD96jKi/TEEO0X1On4djO6WXOPPbYl9vPyvg1hlN5vq2tNNL5qrJUpF6Go26nXu+RX5UKWHWMBJd1HmyqVXjL+vfOLqqVyDjrEr3t13DswVt02UZ5yA8h/ixJ8GDPZsThRrY76u/xYqDLesklri6o4ZiAR/W2QfLo4yTabUT8EqKRbyRj3I8i3oHVaBvS0AE2/bAZJ9EHbKZdVLKJeHIBiN/CBD6Ilwm6ogJjaz+wcwR2LsfThimHz2Z0lo6n5E08uVBjx57GscdhjCzitZis3+rj2Z7H6vVr6NjSHy3pDGKffAyYiBUvanCYlM/BWa/BSrAEaQ/Sbowx/tFvrDZ1P/4NWfn/MWQYQh9DkD2BdBfSP6GPFyaq7PgrHU9pYmLFo+Mp+ilLTTueFc9qUzbnNBcE6Hh0AyMErHY8eThQASfcm4wQ4qDJIqAcSqb1LNNlnHmcyD9Trx3LGxPQeTaWTpCEX8Ox0h3QZfV8gnDEbkpqOQYxHG3y8mUB2RYO+U7ss5WgAYPwj9J83k6JkmYb9SUdT6lr4j6e1RcXCgzT5BGg4yVvTtvCIiscT1/224JaGysJ1gts4J23haEGI4dzDqP/0tIWJlHqAb7ys7fWfDXfihXPAbgknVC+oeEo52YAAuD4z8md2hqnC2BGdE0kDBVkr7ghXPfz+YVCYS9kW/551uisM9cTOMlP7tZ9Wxl1P5LaKfYyNaetgZHrGY7yS/U6j7yNq3XsJMFniQcjvUp+Srca9IpqYRoyfgyHzFpdrlEeq+Z2yCTyV/Kw63LY94dGDBz1K+r5ki5XTyaR5UEMx1OLP+vtms1PPvW4Du3m2QIVumQQ5ZXmahwGdyMNHOSO59cufRC/baKUa+snF4An/7fFY7gK/myUUHz0NegiE+v3X+BkW/Bm8zdh+wkXXRoWScdTQiaeXKixY0+l4Sq0YnCsbqsR6362QY1tcwrneh763dAKPrrdrejf2j5tMBw6dCFOR7wBTvoXXadW5eFML6Dv6xF7EI3dR8XY1WDCSdr6UGsCWFLGlF6nbDFxqOUtCUWfaawE6Hix4uZgioDVjlc9CalUvq4UZkoCoQhoTlU913B2qMvoeZygN/xHwM6+uF1LQOdZW5PwLT+GT14B6qI1+YQjaql5OsiWDmRb580aDvl5uLM/1mw72+y2RR/THHk7xRZPiFkP6XhqSN5OUSSYJp6A1Ve1iaefYgONOd6JH5/9fLG+7Kd4LmIzXec9uK3mNb3YdDDmeCMvba0xUsIYfe3FnTWF3IiUQOF0//jFmeq0UnwXryKfUZuxpsYcT1p5cFVGFA7+p2pw15JlV0gHLJweKlULmQlNQDKVId99QYfqbPSNR8TQ9h61GXtq1PGktUfvXjLugLrl+e5z5Sdkq2H4+cfn6vXMexMYffWJRVV4yDilB3+TEWd23+UsjnXbuOMpa+XqJ6Nb6PnMbUcUyMLQ8ZPvPPXAAje5tJadevrm5YVT/UXFqGvpV95yYyEdTkYbgjEt+laKKXuiDiR/4YfFvId360We+dKpY5/Pz5jr+9Vvz84sriwc2nFPfv7HN/hVcXA7Xowuqk8zu7eauTL+b2Fb63i1iDLi/PV/F12XfKy22MdWaWykUDz4ysHSv3/+qZ4bn+j30cSoyMC2NWt6lt37YHbGhfNznd1N/6TzzL4nxejOtU3ZQMdrAlfX0qvFrHW/EPk572uilT/R4vDxghg+chwfxX8z09F9LDd70atj+/5RkK2Lx/ae/TxabgRvEGeqO29+3qWzpEzngk/miv07r66UyudVOrsX5WZeND3XNb0qJ2WiCKWhvWLk5ZtFaSDczQA6XgSzkZ29UMzdsEtke3pFJmvNKWxgyyrlgiiP9Ivh5/CrzfJI4H68GppwPGPv/HuBCFNXPtEnDt96/ngXHYtceursER0LrhSd779KTFu6UuTnLnERiqeoePJ1MbZniygc/psoHt4BxxpfVGsGz8+v2UzMRuTLv18yjS4u/PbjJefqeF4NmqzLzsZn81v8T6zicDwTK177H4uadBaK20GAjmfHPKROCzpe6qbcDoPpeHbMQ+q0oOOlbsrtMJiOZ8c8pE4LOl7qptwOg+l4dsxD6rSg46Vuyu0w2JzjVcQeOxCkW4viIbHRBAFjj8yksa1+bMZHZo1dysTjMqmVuRUPgy/cGv8LiI2nIh0S5bKomHI6Sdio40kFpPMBwr0yzxAPgbFDYlXvF83OvdFDrRPzgeXi0UxWrHOWB93mobaWXGVI3DfrVvH92lIzW1Y5no5g/wpRyGZEqPcF6Xh4xa8iCr2rRKfO1oa8tY6nw+n7gtgscuImvcxPPq2OVx4Qm3pvF7f4YWRKpi0czwmnb4W4E79RewhnKec46/TtNDheuSgK5T5x/5xviwd0223Pt6XjuUF9e6WYly+JH2BlvE3VJ83xikfFM9lhcUfvd8UBZWO7polxvEYT0P8NcUVmmlidqYjrsVJ+sJG8n/qoXn2XtzZEUezJFMWzoyfF4wsfFm/4Gb+dZVLjeGEmqXLf+K0HdetJpeNdvnni7L3IwTNi/B88/3dAlFdtFfz+SxjobEsCJEACJEACJEACJEACJEACJEACJEACJEACJEACJEACJEACJEACJEACJEACJEACJEACJEACJEACJEACJEACJEACJEACJEACJEACJEACJEACJEACJEACJEACJEACJNBGBP4Pta7qWmho+60AAAAASUVORK5CYII=;" vertex="1" parent="0CfnM0hkbXZemsLm9H7N-7">
          <mxGeometry x="30" y="35" width="50" height="50" as="geometry" />
        </mxCell>
        <mxCell id="0CfnM0hkbXZemsLm9H7N-12" value="&lt;div style=&quot;&quot;&gt;&lt;div style=&quot;&quot;&gt;&lt;div&gt;&lt;div&gt;&lt;font color=&quot;#000000&quot;&gt;Collection of thing or machine data to derive future value out of it (e.g. by machine learning).&lt;/font&gt;&lt;/div&gt;&lt;div&gt;&lt;br&gt;&lt;/div&gt;&lt;/div&gt;&lt;/div&gt;&lt;/div&gt;" style="rounded=0;whiteSpace=wrap;html=1;fontColor=#FFFFFF;fillColor=#FFFFFF;strokeColor=#E35500;fontSize=16;shadow=1;align=center;verticalAlign=top;" vertex="1" parent="1">
          <mxGeometry x="680" y="100" width="290" height="320" as="geometry" />
        </mxCell>
        <mxCell id="0CfnM0hkbXZemsLm9H7N-13" value="&lt;div style=&quot;&quot;&gt;&lt;div style=&quot;&quot;&gt;&lt;div style=&quot;&quot;&gt;&lt;div&gt;&lt;font color=&quot;#000000&quot;&gt;Exchange of data between two or more things, e.g. machine-to-machine (M2M).&lt;/font&gt;&lt;/div&gt;&lt;div&gt;&lt;br&gt;&lt;/div&gt;&lt;/div&gt;&lt;/div&gt;&lt;/div&gt;" style="rounded=0;whiteSpace=wrap;html=1;fontColor=#FFFFFF;fillColor=#FFFFFF;strokeColor=#E35500;fontSize=16;shadow=1;align=center;verticalAlign=top;" vertex="1" parent="1">
          <mxGeometry x="1000" y="100" width="290" height="320" as="geometry" />
        </mxCell>
        <mxCell id="0CfnM0hkbXZemsLm9H7N-14" value="&lt;div style=&quot;font-size: 14px;&quot;&gt;&lt;div&gt;&lt;u&gt;Example&lt;/u&gt;: Monitoring of connected devices or machines and to gain real-time visibility of shop floor based production operations.&amp;nbsp;&lt;/div&gt;&lt;/div&gt;" style="rounded=0;whiteSpace=wrap;html=1;fontColor=#000000;fillColor=#fedcc6;strokeColor=#FEDCC6;align=left;verticalAlign=top;fontSize=14;" vertex="1" parent="1">
          <mxGeometry x="40" y="440" width="290" height="100" as="geometry" />
        </mxCell>
        <mxCell id="0CfnM0hkbXZemsLm9H7N-15" value="&lt;div style=&quot;&quot;&gt;&lt;div style=&quot;&quot;&gt;&lt;div style=&quot;&quot;&gt;&lt;u&gt;Example&lt;/u&gt;: Triggering of a service order process based on machine alerts (e.g. in the context of SAP Predictive Maintenance &amp;amp; Service).&lt;/div&gt;&lt;/div&gt;&lt;/div&gt;" style="rounded=0;whiteSpace=wrap;html=1;fontColor=#000000;fillColor=#fedcc6;strokeColor=#FEDCC6;align=left;verticalAlign=top;fontSize=14;" vertex="1" parent="1">
          <mxGeometry x="360" y="440" width="290" height="100" as="geometry" />
        </mxCell>
        <mxCell id="0CfnM0hkbXZemsLm9H7N-16" value="&lt;div style=&quot;&quot;&gt;&lt;div style=&quot;&quot;&gt;&lt;div style=&quot;&quot;&gt;&lt;div&gt;&lt;u&gt;Example&lt;/u&gt;: Optimizing asset maintenance with anomaly detection, spectral analysis, and machine learning algorithms.&lt;/div&gt;&lt;div&gt;&lt;br&gt;&lt;/div&gt;&lt;/div&gt;&lt;/div&gt;&lt;/div&gt;" style="rounded=0;whiteSpace=wrap;html=1;fontColor=#000000;fillColor=#fedcc6;strokeColor=#FEDCC6;align=left;verticalAlign=top;fontSize=14;" vertex="1" parent="1">
          <mxGeometry x="680" y="440" width="290" height="100" as="geometry" />
        </mxCell>
        <mxCell id="0CfnM0hkbXZemsLm9H7N-17" value="&lt;div style=&quot;&quot;&gt;&lt;div style=&quot;&quot;&gt;&lt;div style=&quot;&quot;&gt;&lt;u&gt;Example&lt;/u&gt;: Communication between two robots during production process.&lt;/div&gt;&lt;/div&gt;&lt;div style=&quot;font-size: 14px;&quot;&gt;&lt;br&gt;&lt;/div&gt;&lt;/div&gt;" style="rounded=0;whiteSpace=wrap;html=1;fontColor=#000000;fillColor=#fedcc6;strokeColor=#FEDCC6;align=left;verticalAlign=top;fontSize=14;" vertex="1" parent="1">
          <mxGeometry x="1000" y="440" width="290" height="100" as="geometry" />
        </mxCell>
        <mxCell id="0CfnM0hkbXZemsLm9H7N-18" value="" style="group" vertex="1" connectable="0" parent="1">
          <mxGeometry x="50" y="190" width="110" height="100" as="geometry" />
        </mxCell>
        <mxCell id="0CfnM0hkbXZemsLm9H7N-19" value="" style="rounded=0;whiteSpace=wrap;html=1;" vertex="1" parent="0CfnM0hkbXZemsLm9H7N-18">
          <mxGeometry y="30" width="110" height="60" as="geometry" />
        </mxCell>
        <mxCell id="0CfnM0hkbXZemsLm9H7N-20" value="Thing" style="rounded=0;whiteSpace=wrap;html=1;fillColor=#000000;fontColor=#FFFFFF;fontSize=16;" vertex="1" parent="0CfnM0hkbXZemsLm9H7N-18">
          <mxGeometry width="110" height="30" as="geometry" />
        </mxCell>
        <mxCell id="0CfnM0hkbXZemsLm9H7N-21" value="" style="rounded=0;whiteSpace=wrap;html=1;fillColor=#595959;fontColor=#FFFFFF;align=left;verticalAlign=top;" vertex="1" parent="0CfnM0hkbXZemsLm9H7N-18">
          <mxGeometry x="10" y="40" width="90" height="40" as="geometry" />
        </mxCell>
        <mxCell id="0CfnM0hkbXZemsLm9H7N-22" value="" style="shape=image;verticalLabelPosition=bottom;labelBackgroundColor=default;verticalAlign=top;aspect=fixed;imageAspect=0;image=data:image/png,iVBORw0KGgoAAAANSUhEUgAAAH0AAAB9CAYAAACPgGwlAAAAAXNSR0IArs4c6QAAAIRlWElmTU0AKgAAAAgABQESAAMAAAABAAEAAAEaAAUAAAABAAAASgEbAAUAAAABAAAAUgEoAAMAAAABAAIAAIdpAAQAAAABAAAAWgAAAAAAAADcAAAAAQAAANwAAAABAAOgAQADAAAAAQABAACgAgAEAAAAAQAAAH2gAwAEAAAAAQAAAH0AAAAAjw60YAAAAAlwSFlzAAAh1QAAIdUBBJy0nQAACLNJREFUeAHtXFuoVUUYXuccPYZhmualUsqkwEAIuhDR7aF6MIooJKKLFAQ+RT0EPgg9hJAVha8SQZBQGUXQgw/1UL1FZPXQBdLSojRNzVPauffNdv/H3926zKw1/zpzjt+Gw8ya+ef7/vm+NWvtPXvtk2V8UQEqQAWoABWgAlSAClABKkAFqAAVoAJUgApQASpABagAFaACVIAKUAEqQAWoABWgAlSAClABKkAFqAAVoAJUgApQASpABWaMAn1WmU7iZYHdh1cVrgH3IGhHq3hdfyxun3n65JMX05/XOJPbxsfHvzTIf8QHM5bhjismlk/uUWJc0u4VBawrgg9eh3QaeXHSnWw6Z2BMxJ6HzmnWrXQ9uemoDwwMzG/KCwxTX0zBm06e420UoOk2uiaNStOTtscmOZpuo2vSqDQ9aXtskqPpNromjUrTk7bHJjmabqNr0qg0PWl7bJKj6Ta6Jo1K05O2xyY5mm6ja9KoND1pe2ySo+k2uiaNStOTtscmuVlr+tDQ0DIbyfJRJyYmvnI9Pg965COcaVUY68+0xqtVPm9Wl0olXhcid1zVs2PgdXOayB3coLGK10HHnrMPZ50pzbqVDqHcI1oL64iRNwYr+G9f8V3cyMjI1Xk4gW0rfDkDcRlOBagAFaACVIAKUAEqQAWoABWgAmkrYLY5kzft7sZJXlduGz6rRvtZlCPw4Y/NKRMr4rbiE968spXNGbdT5V5IwO2Uef+dHjU5id92fZuXvE+bYPjySzw4X/PBL4oBzlzBKuPuiSmCi9puutIxIXdSjcfKOGSXCtxPg/fVptwhnMLVNVkOg0rsAI7it2yDQYNSCpazGKtmZ5O8BAflCz44iFsgY8C91WdMb4yMd2VvX9mxHof6eWWxug+x1+mxum/G1DGBG2USMZIOwZJYlFc24VY4V/ng4AQ7KGN84vNiZHzThZKHbd4myaNcFINM8KqwEDfgG1uF5fpDsEJiy7hj4RRxmL+Rwz3xeBG5UftYF3eNEX4uLFbm164D92Sv/1qRC9JtBEbnlgLz7y+LS64v9tnqi+cb5yuYL55vXGxeXzwdZ77SNRnraShA09PwodUsaHqrcqdBRtPT8KHVLGh6q3KnQUbT0/Ch1Sxoeqtyp0FG09PwodUsZq3p2Cy5uE0lsYs27PiwM/dDU15gdLCA+VJTrFbHT9cOFXgHY3KHYIXElpkRC6eIw3KlP+VI3QSKyC3asdffeO9b8lK5b5S2shIrs/PsgBpXFp7bJ2OB9VtuQOqNbgLdV6MfEwrI2NjYZz5zRvzdMgZlrW/51Pigk7buODevJmN9dJEY6ydn1oJo6lEn3Ku+wLH3jwvxBMkNkqgrQ55iAde+/v7+1Xo82j7Xx3n1JpyC58yTupRF3L18Lj5knoKfVIn5X6LP4Lr1OpMC1+K6fDDp3zqcMga8m2pw3yrjLUvTld6bOES4s7et4viTWPdocM8Dl4+oH4Hzfyu1Is/SbnC7Z95uKwiKNscCfDZTASpABagAFaACVIAKUAEqQAWowMxRoNXP6VoWfHa9Gcdnbaui7WN8Rl4f67O55tN18DyG4zdcG/a492Dn7g5wHtUxMeuHXsnw+7RsjmCOqV31sfHsu5UvZzH+I5XAV5atmg6xr0BGeyuzQgDMiPpDPuzbf4otz1uquGF+NE2ObM9yN3m06TqfFduyaNwat7du+S3bWVww3AkwZThMHXYC6xf6n5NBWH3yU9+pFSJ9ISVo+xy3Nhzcp4QXWJs0not1L90WWn9nQzZwfFe+4WVYv2wIH1OGV9TXypmlRXRiFyWj27H3PeKM77Y9gGHv6X6fOnivQdweia3iRvwWxD7vGy9xuty/Obtw4bVZ51ZRtKKL2kf3nUZatct2xXsZoCcVWq9juHBg7GrUO1JUGSZjdKm4H8L4t3RfWV2NC/7GS6/wInOL2sV0l5ul8aaXd4h3k4hbxzSM+Qnjn3UY2gjBLCtV/CMhhjtMnStwnijj0X3acN1ep255qTdd6SK8FrGOAIKDsRcAa6gKA7eGn3FruMzFNeEWXh+MQy9ma+atzn7UuRWt6KJ2vdIdjtVqN13pWoAmdSX6CR+cGIZrHrzzv08f59V7Dc+LCW2zWu1mpuMd8m43SZRvhk42lXg52fDO//1UcoqRh5npuDTe5RLEqtsYI1FfDFza/+jGPuM75lyLMzMdZnfeL2C1TLQpKniXdvm2t8V7eFu2oC2uGDxmpsdIrgkGTrZGGywh3BOj2b0h8dMdO2tNx+3lorbEXb4l29kWVwweM9PxBu6YS3B4eHhdjEQDMO7pxh4OGHNOhZqZjnur2wLNBgcHv2lTUVzWP4zFh49qT8bCSgnHzHSIfyDWRHHV+MBhoTwZgolLvHvsufYLH9V2uMGYi+kmVmGCk9n+wr4GHWam65zwMarRaofmnTdKMOF8jVtSl/t57R8s+P6ESnJYtCH+lySr3s0uF/yYpanpskJwqV+HVTdQJ3GMC34XDt4/havOeIxZghPMPeQRtMrxbwNPCW/jcjIz2xAyNd1NHJfkrV0BxpyYIWJow+QE8h2v4zVO1Xjk68Q+0o27vipe9y9+OJuvj5vUscrN/ltkK/cqiH4cAiwUEbQh0qZL3A5ex9XhcWmripe4vFIbDkOHsYJz/zMz4pxh/yiMteD9Xh17V+XbtqIvVora5QsXqy9aZAKtmO7IIOpyFAeF2LdsYrhw4CT6FSfRpXJcVcbgPPo2LnIH8+/zhabvzYaxwnNPyqqcQ/rNL++SDIQ81BXzUWkrK12se5XF+PZhda90WDC/+2xK4cg5sTgXP5j1LzmWeb+Pcc/HtWG4m3kUUQslZMeUAoc3Z7f3Lct24zSY51Y6/mfFX3NPZGuX7sh+nwpihQpQASpABagAFaACVIAKUAEqQAWoABWgAlSAClABKkAFqAAVoAJUgApQASpABagAFaACVIAKUAEqQAWoABVopMB/D4TyAgRqoO4AAAAASUVORK5CYII=;" vertex="1" parent="0CfnM0hkbXZemsLm9H7N-18">
          <mxGeometry x="30" y="35" width="50" height="50" as="geometry" />
        </mxCell>
        <mxCell id="0CfnM0hkbXZemsLm9H7N-23" value="" style="group" vertex="1" connectable="0" parent="1">
          <mxGeometry x="50" y="310" width="110" height="100" as="geometry" />
        </mxCell>
        <mxCell id="0CfnM0hkbXZemsLm9H7N-24" value="" style="rounded=0;whiteSpace=wrap;html=1;" vertex="1" parent="0CfnM0hkbXZemsLm9H7N-23">
          <mxGeometry y="30" width="110" height="60" as="geometry" />
        </mxCell>
        <mxCell id="0CfnM0hkbXZemsLm9H7N-25" value="Thing" style="rounded=0;whiteSpace=wrap;html=1;fillColor=#000000;fontColor=#FFFFFF;fontSize=16;" vertex="1" parent="0CfnM0hkbXZemsLm9H7N-23">
          <mxGeometry width="110" height="30" as="geometry" />
        </mxCell>
        <mxCell id="0CfnM0hkbXZemsLm9H7N-26" value="" style="rounded=0;whiteSpace=wrap;html=1;fillColor=#595959;fontColor=#FFFFFF;align=left;verticalAlign=top;" vertex="1" parent="0CfnM0hkbXZemsLm9H7N-23">
          <mxGeometry x="10" y="40" width="90" height="40" as="geometry" />
        </mxCell>
        <mxCell id="0CfnM0hkbXZemsLm9H7N-27" value="" style="shape=image;verticalLabelPosition=bottom;labelBackgroundColor=default;verticalAlign=top;aspect=fixed;imageAspect=0;image=data:image/png,iVBORw0KGgoAAAANSUhEUgAAAH0AAAB9CAYAAACPgGwlAAAAAXNSR0IArs4c6QAAAIRlWElmTU0AKgAAAAgABQESAAMAAAABAAEAAAEaAAUAAAABAAAASgEbAAUAAAABAAAAUgEoAAMAAAABAAIAAIdpAAQAAAABAAAAWgAAAAAAAADcAAAAAQAAANwAAAABAAOgAQADAAAAAQABAACgAgAEAAAAAQAAAH2gAwAEAAAAAQAAAH0AAAAAjw60YAAAAAlwSFlzAAAh1QAAIdUBBJy0nQAACLNJREFUeAHtXFuoVUUYXuccPYZhmualUsqkwEAIuhDR7aF6MIooJKKLFAQ+RT0EPgg9hJAVha8SQZBQGUXQgw/1UL1FZPXQBdLSojRNzVPauffNdv/H3926zKw1/zpzjt+Gw8ya+ef7/vm+NWvtPXvtk2V8UQEqQAWoABWgAlSAClABKkAFqAAVoAJUgApQASpABagAFaACVIAKUAEqQAWoABWgAlSAClABKkAFqAAVoAJUgApQASpABWaMAn1WmU7iZYHdh1cVrgH3IGhHq3hdfyxun3n65JMX05/XOJPbxsfHvzTIf8QHM5bhjismlk/uUWJc0u4VBawrgg9eh3QaeXHSnWw6Z2BMxJ6HzmnWrXQ9uemoDwwMzG/KCwxTX0zBm06e420UoOk2uiaNStOTtscmOZpuo2vSqDQ9aXtskqPpNromjUrTk7bHJjmabqNr0qg0PWl7bJKj6Ta6Jo1K05O2xyY5mm6ja9KoND1pe2ySo+k2uiaNStOTtscmuVlr+tDQ0DIbyfJRJyYmvnI9Pg965COcaVUY68+0xqtVPm9Wl0olXhcid1zVs2PgdXOayB3coLGK10HHnrMPZ50pzbqVDqHcI1oL64iRNwYr+G9f8V3cyMjI1Xk4gW0rfDkDcRlOBagAFaACVIAKUAEqQAWoABWgAmkrYLY5kzft7sZJXlduGz6rRvtZlCPw4Y/NKRMr4rbiE968spXNGbdT5V5IwO2Uef+dHjU5id92fZuXvE+bYPjySzw4X/PBL4oBzlzBKuPuiSmCi9puutIxIXdSjcfKOGSXCtxPg/fVptwhnMLVNVkOg0rsAI7it2yDQYNSCpazGKtmZ5O8BAflCz44iFsgY8C91WdMb4yMd2VvX9mxHof6eWWxug+x1+mxum/G1DGBG2USMZIOwZJYlFc24VY4V/ng4AQ7KGN84vNiZHzThZKHbd4myaNcFINM8KqwEDfgG1uF5fpDsEJiy7hj4RRxmL+Rwz3xeBG5UftYF3eNEX4uLFbm164D92Sv/1qRC9JtBEbnlgLz7y+LS64v9tnqi+cb5yuYL55vXGxeXzwdZ77SNRnraShA09PwodUsaHqrcqdBRtPT8KHVLGh6q3KnQUbT0/Ch1Sxoeqtyp0FG09PwodUsZq3p2Cy5uE0lsYs27PiwM/dDU15gdLCA+VJTrFbHT9cOFXgHY3KHYIXElpkRC6eIw3KlP+VI3QSKyC3asdffeO9b8lK5b5S2shIrs/PsgBpXFp7bJ2OB9VtuQOqNbgLdV6MfEwrI2NjYZz5zRvzdMgZlrW/51Pigk7buODevJmN9dJEY6ydn1oJo6lEn3Ku+wLH3jwvxBMkNkqgrQ55iAde+/v7+1Xo82j7Xx3n1JpyC58yTupRF3L18Lj5knoKfVIn5X6LP4Lr1OpMC1+K6fDDp3zqcMga8m2pw3yrjLUvTld6bOES4s7et4viTWPdocM8Dl4+oH4Hzfyu1Is/SbnC7Z95uKwiKNscCfDZTASpABagAFaACVIAKUAEqQAWowMxRoNXP6VoWfHa9Gcdnbaui7WN8Rl4f67O55tN18DyG4zdcG/a492Dn7g5wHtUxMeuHXsnw+7RsjmCOqV31sfHsu5UvZzH+I5XAV5atmg6xr0BGeyuzQgDMiPpDPuzbf4otz1uquGF+NE2ObM9yN3m06TqfFduyaNwat7du+S3bWVww3AkwZThMHXYC6xf6n5NBWH3yU9+pFSJ9ISVo+xy3Nhzcp4QXWJs0not1L90WWn9nQzZwfFe+4WVYv2wIH1OGV9TXypmlRXRiFyWj27H3PeKM77Y9gGHv6X6fOnivQdweia3iRvwWxD7vGy9xuty/Obtw4bVZ51ZRtKKL2kf3nUZatct2xXsZoCcVWq9juHBg7GrUO1JUGSZjdKm4H8L4t3RfWV2NC/7GS6/wInOL2sV0l5ul8aaXd4h3k4hbxzSM+Qnjn3UY2gjBLCtV/CMhhjtMnStwnijj0X3acN1ep255qTdd6SK8FrGOAIKDsRcAa6gKA7eGn3FruMzFNeEWXh+MQy9ma+atzn7UuRWt6KJ2vdIdjtVqN13pWoAmdSX6CR+cGIZrHrzzv08f59V7Dc+LCW2zWu1mpuMd8m43SZRvhk42lXg52fDO//1UcoqRh5npuDTe5RLEqtsYI1FfDFza/+jGPuM75lyLMzMdZnfeL2C1TLQpKniXdvm2t8V7eFu2oC2uGDxmpsdIrgkGTrZGGywh3BOj2b0h8dMdO2tNx+3lorbEXb4l29kWVwweM9PxBu6YS3B4eHhdjEQDMO7pxh4OGHNOhZqZjnur2wLNBgcHv2lTUVzWP4zFh49qT8bCSgnHzHSIfyDWRHHV+MBhoTwZgolLvHvsufYLH9V2uMGYi+kmVmGCk9n+wr4GHWam65zwMarRaofmnTdKMOF8jVtSl/t57R8s+P6ESnJYtCH+lySr3s0uF/yYpanpskJwqV+HVTdQJ3GMC34XDt4/havOeIxZghPMPeQRtMrxbwNPCW/jcjIz2xAyNd1NHJfkrV0BxpyYIWJow+QE8h2v4zVO1Xjk68Q+0o27vipe9y9+OJuvj5vUscrN/ltkK/cqiH4cAiwUEbQh0qZL3A5ex9XhcWmripe4vFIbDkOHsYJz/zMz4pxh/yiMteD9Xh17V+XbtqIvVora5QsXqy9aZAKtmO7IIOpyFAeF2LdsYrhw4CT6FSfRpXJcVcbgPPo2LnIH8+/zhabvzYaxwnNPyqqcQ/rNL++SDIQ81BXzUWkrK12se5XF+PZhda90WDC/+2xK4cg5sTgXP5j1LzmWeb+Pcc/HtWG4m3kUUQslZMeUAoc3Z7f3Lct24zSY51Y6/mfFX3NPZGuX7sh+nwpihQpQASpABagAFaACVIAKUAEqQAWoABWgAlSAClABKkAFqAAVoAJUgApQASpABagAFaACVIAKUAEqQAWoABVopMB/D4TyAgRqoO4AAAAASUVORK5CYII=;" vertex="1" parent="0CfnM0hkbXZemsLm9H7N-23">
          <mxGeometry x="30" y="35" width="50" height="50" as="geometry" />
        </mxCell>
        <mxCell id="0CfnM0hkbXZemsLm9H7N-28" style="edgeStyle=none;rounded=0;orthogonalLoop=1;jettySize=auto;html=1;exitX=1;exitY=0.5;exitDx=0;exitDy=0;startArrow=block;startFill=1;endArrow=block;endFill=1;strokeWidth=5;strokeColor=#E35500;entryX=0;entryY=0.5;entryDx=0;entryDy=0;" edge="1" parent="1" source="0CfnM0hkbXZemsLm9H7N-21" target="0CfnM0hkbXZemsLm9H7N-10">
          <mxGeometry relative="1" as="geometry">
            <mxPoint x="720" y="401" as="sourcePoint" />
            <mxPoint x="510" y="320" as="targetPoint" />
            <Array as="points">
              <mxPoint x="180" y="250" />
              <mxPoint x="180" y="310" />
            </Array>
          </mxGeometry>
        </mxCell>
        <mxCell id="0CfnM0hkbXZemsLm9H7N-29" style="edgeStyle=none;rounded=0;orthogonalLoop=1;jettySize=auto;html=1;startArrow=block;startFill=1;endArrow=block;endFill=1;strokeWidth=5;strokeColor=#E35500;exitX=1;exitY=0.5;exitDx=0;exitDy=0;" edge="1" parent="1" source="0CfnM0hkbXZemsLm9H7N-26">
          <mxGeometry relative="1" as="geometry">
            <mxPoint x="470" y="310" as="sourcePoint" />
            <mxPoint x="220" y="310" as="targetPoint" />
            <Array as="points">
              <mxPoint x="180" y="370" />
              <mxPoint x="180" y="310" />
            </Array>
          </mxGeometry>
        </mxCell>
        <mxCell id="0CfnM0hkbXZemsLm9H7N-30" value="" style="group" vertex="1" connectable="0" parent="1">
          <mxGeometry x="530" y="250" width="110" height="110" as="geometry" />
        </mxCell>
        <mxCell id="0CfnM0hkbXZemsLm9H7N-31" value="" style="rounded=0;whiteSpace=wrap;html=1;" vertex="1" parent="0CfnM0hkbXZemsLm9H7N-30">
          <mxGeometry y="30" width="110" height="60" as="geometry" />
        </mxCell>
        <mxCell id="0CfnM0hkbXZemsLm9H7N-32" value="&lt;p style=&quot;line-height: 70%;&quot;&gt;&lt;span style=&quot;font-size: 12px;&quot;&gt;Business&lt;br&gt;Application&lt;/span&gt;&lt;/p&gt;" style="rounded=0;whiteSpace=wrap;html=1;fillColor=#000000;fontColor=#FFFFFF;fontSize=16;" vertex="1" parent="0CfnM0hkbXZemsLm9H7N-30">
          <mxGeometry width="110" height="30" as="geometry" />
        </mxCell>
        <mxCell id="0CfnM0hkbXZemsLm9H7N-33" value="" style="rounded=0;whiteSpace=wrap;html=1;fillColor=#595959;fontColor=#FFFFFF;align=left;verticalAlign=top;" vertex="1" parent="0CfnM0hkbXZemsLm9H7N-30">
          <mxGeometry x="10" y="40" width="90" height="40" as="geometry" />
        </mxCell>
        <mxCell id="0CfnM0hkbXZemsLm9H7N-34" value="" style="shape=image;verticalLabelPosition=bottom;labelBackgroundColor=default;verticalAlign=top;aspect=fixed;imageAspect=0;image=data:image/png,iVBORw0KGgoAAAANSUhEUgAAAVkAAAFZCAYAAAAy8lzbAAAAAXNSR0IArs4c6QAAAIRlWElmTU0AKgAAAAgABQESAAMAAAABAAEAAAEaAAUAAAABAAAASgEbAAUAAAABAAAAUgEoAAMAAAABAAIAAIdpAAQAAAABAAAAWgAAAAAAAADcAAAAAQAAANwAAAABAAOgAQADAAAAAQABAACgAgAEAAAAAQAAAVmgAwAEAAAAAQAAAVkAAAAAwupN1QAAAAlwSFlzAAAh1QAAIdUBBJy0nQAAEK9JREFUeAHt3UusJFUZB/DqvnceMC8QDAFnYWJAERCDxmBEAzJG4kYWYEhUlpgoGhNYuJM9MTFBUGOEwEJAI4iJCx6jGzUhKBvUIJiYyAQl8hxmGO70y/+5cOdxc53pvpnqW9X9q8m5VV1dVec7v9Pn6+rqnu6qMhEgQIAAAQIECBAgQIAAAQIECBAgQIAAAQIECBAgQIAAAQIECBAgQIAAAQIECBAgQIAAAQIECBAgQIAAAQIECBAgQIAAAQIECBAgQIAAAQIECBAgQIAAAQIECBAgQIAAAQIECBAgQIAAAQIECBAgQIAAAQIECBAgQIAAAQIECBAgQIAAAQIECBAgQIAAAQIECBAgQIAAAQIECBAgQIAAAQIECBAgQIAAAQIECBAgQIAAAQIECBAgQIAAAQIECBAgQIAAAQIECBAgQIAAAQIECBAgQIAAAQIECBAgQIAAAQIECBAgQIAAAQIECBAgQIAAAQIECBAgQIAAAQIECBAgQIAAAQIECBAgQIAAAQIECBAgQIAAAQIECBAgQIAAAQIECBAgQIAAAQIECBAgQIAAAQIECBAgQIAAAQIECBAgQIAAAQIECBAgQIAAAQIECBAgQIAAAQIECBAgQIAAAQIECBAgQIAAAQIECBAgQIAAAQIECBAgQIAAAQIECBAgQIAAAQIECBAgQIAAAQIECBAgQIAAAQIECBAgQIAAAQIECBAgQIAAAQIECBAgQIAAAQIECBAgQIAAAQIECBAgQIAAAQIECBAgQIAAAQIECBAgQIAAAQIECBAgQIAAAQIECBAgQIAAAQIECBAgQIAAAQIECBAgQIAAAQIECBAgQIAAAQIECBAgQIAAAQIECBAgQIAAAQIECBAgQIAAAQIECBAgQIAAAQIECBAgQIAAAQIECBAgQIAAAQIECBAgQIAAAQIECBAgQIAAAQIECBAgQIAAAQIECBAgQIAAAQIECBAgQIAAAQIECBAgQIAAAQIECBAgQIAAAQIECBAgQIAAAQIECBAgQIAAAQIECBAgQIAAAQIECBAgQIAAAQIECBAgQIAAAQIECBAgQIAAAQIECBAgQIAAAQIECBAgQIAAAQIECBAgQIAAAQIECBAgQIAAAQIECBAgQIAAAQIECBAgQIAAAQIECBAgQIAAAQIECBAgQIAAAQIECBAgQIAAAQIECBAgQIAAAQIECBAgQIAAAQIECBAgQIAAAQIECBAgQIAAAQIECBAgQIAAAQIECBAgQIAAAQIECBAgQIAAAQIECBAgQIAAAQIECBAgQIAAAQKNERiNRp3GBDPlQOa57VOmnrnqGjlorv95tfD2jvM+WVWdizqdznBS9fcMe9VHB29Xg2ph0l2rrdnr4v5SZzDhniXI07PvJb1e1Ztw32pUdXsL1YF/VluevPy6pecn3X2a2yfZXJD69qQsTbPeDaxrS+rem8fh3zcwhpNWnX45Nxt9OmVXysRj5qQVNG+Dbr/ff25xcfEP6Zt+88I7GtHi0cUGLe3evbnzWvW1rWcvfGXUH40dWNmyPGtsHS5U2/sL1WDCp5Cy/2mjbrUrXdZfPtLYVSdPVtX27Lt90uxcquhW1cv7O4c61fBbudXoJJv4rk65M2WeppvT2EYn2cR3ScpdKWelzMW0sLDwUBr6pxRJduIe35dkua1zsPfmsBpOkGRLPSWvLo2G1VvZb9J8VxLlcDSq9g/Wv++BVDppvYtJspleT45uw9lhG2JcBj2Ff9rQ5vIC6vWUuUmyOXs/mLPYMmwbPb0zvBsdouAIECDQXgFJtr19J3ICBFog0Mxrsi2AE+JRgbxsq/KybX/mb2Q+4ZXwo8fZyKXEXl52ljeNdra0CWvypVmvpD2H1ryzJStL36QN70u4rTwplGRb8kBrcpgZAGUc/Dbz+xLn6U2O9f/FltjfGgwGX82bKddmm1Y+UazVtvTLfcPh8M/lvrRtrU0avy7xv53Y706gOxsf7BoBzmaSbfyl8DV6ouWrMpif7na7D7e5Gb1e76K049ok3DY347jY0yePpj2PHreyhTfSL+UTLa1Msq08/T7RY6Tk197yIJFpT+RUw32bazjmVA+ZhLRpqhVOp7Kt06mm9lpa+8w3k0l2qdOdndd7tT92VUCAQJ0CM5dkC1bzPzlXZ5c6NgECTRKYySTbJGCxECAw3wKS7Hz3v9YTIFCzgCRbM7DDEyAw3wKS7Hz3v9YTIFCzgCRbM7DDEyAw3wKS7Hz3v9YTIFCzgCRbM7DDEyAw3wKS7Hz3v9YTIFCzgCRbM7DDEyAw3wKS7Hz3v9YTIFCzgCRbM7DDEyAw3wKS7Hz3v9YTIFCzgCRbM3CbDp/v7Gzt18m1yXmcWNMXs/IVheM0d6a3kWRnuntP3rgM5o/kFwG+m/ml+XLn5S/hzbJke3K6urc4O/1wc75IfE/dFTl+vQKSbL2+jT96EuyH82XVtyXQOzOob0w5ZyXZNj742Q6wnMnekp9duSuJ9valpaUPzXZzZ7d1kmxj+jYnkaPhRvycw9vvEnwq85+k3JFEe12Kx8bRx8bw6OLUlnqp6b95wjt/cXHx1k2bNt2RJ8Rb0y9nTS0CFZ0Sgdn8ja9TQjPtg+QVeqebP4MNqPhIleUnZK5P+Wx+vO4zOYN6JIN7b7k3gzvjfW6/Dn172l/GyvZiMYWpnzrOTDnyczix31NK1n0ssTyU+UO5PfUHS+o1TSggyU4IVsfmw5wndTbt3HHu+d++YTS67ZLUMa1+6WfArn4ZWs6mz8olhG9mEH8+99+V249n+W91tL0lx/xS4rw45UjSqznucuZcfjRw9xr13JB1V+VJcE/65t70yx+P2ca19GMwmrI4rcHclPY2Mo5ykaCzsG37zjMu/EICLGVqUwbp6rqOrMh9F+TO76f8rt/v35Prgw9kef/qHWb8dnnSKZdSSmnCVOI5J0+CN2X+8VxC2Jvl72W5XPZxZhuEpk2SbEN6ZFQNR73+4TJImtgnVyXBXp6zp2uSeM9cIzE3RLGWMI486dRy9MkPuhJPSbaXJcFelvml6Zt/ZXnX5IezR90C3tyoW3h2jn9akuv7U8r1QlOzBFYSb7OiEs2ygCTbmAdCp7PQXWzSWWw5U1qZ/pGF7yTBfjnze1ZWzsn8WIcmNHklnpJYn84Z7O0HDx68MWexd+f2G00IUAzHCzRpUB8f2RzdWr4sOlw6tHTwxb+k2S+kLEyp+YO8ebI7yfMTa9RXBvFrGcQPpDycTxk8XrbJ9levse0sryoO5c2lv6ZM842vXbG+Mn2z+iNbJZ6XUh5JuTeXcZbf+Mq2F+b2tB43qco0roAkO65Ujdt183pi1Nv/5qsv/Oz+cz94y/2p6rQaqzv20IcyiL+YFauTbLkk8OuUB3OG9KsM5MPH7LRyJnXMqplffDAt/GHKtD7ClU/P9c7PE9sHUufqJPtA3ux6OH3yy/Td6je65rFvGv/gk2Qb0EXl1KQa9fv7X376pQyc/0wzpHxq4N8ZsEeqzBnRU4nhrqx4LPMXj9wx3wsHYtELwWvTYkg/vJq6Sp0r0xN5RfFonvTuyX9OeGVlpXnzBSTZxvRRp9PdvJhsd+y4mkpwW96tZV/mP0rSfWzz5s1PlXUZ6Mktc/sfEN5lWZ5txHsX5dLEe1OeT3J9JP3y0y1btjx7bFCW2yEgybajn2qLMmexL2QQ35szpF8kof6mVLSSXCXY2tjHOXD53Gv5/Ouz6aMnxtnBNs0UkGSb2S/TjOqZJNjyv7veXKlUcl2R2ND5y+mHH2xoBCo/JQKS7ClhbO9BMpAPtjf62Y08/VLOZE0zILAR15pmgE0TCBAgMJ6AJDuek60IECCwLgFJdl1sdiJAgMB4ApLseE62IkCAwLoEJNl1sdmJAAEC4wlIsuM52YoAAQLrEpBk18VmJwIECIwnIMmO52QrAgQIrEtAkl0Xm50IECAwnoAkO56TrQgQILAuAUl2XWx2IkCAwHgCkux4TrYiQIDAugQk2XWx2YkAAQLjCUiy4znZigABAusSkGTXxWanNQRm4av5ZqENq7tmVr7Kcri6YW257ftk29JTDY8zv6ZwTX78L9//3V35OZuGR3x8ePl1iKW04XOJ//g7Wn4rbbop/XJlaUaL21Z+yHNHaUMbJ0m2jb3WvJg7GcBX5Iumr2heaONFVBJQEtJySTvG26kFW6Ut1+eHF1sQ6eyGSH92+3aqLZuFxDQLbZhqp6tsLIHZem00VpNtRIAAgekJSLLTs1YTAQJzKNDMywW787PUr422bdqxUI36o4m6pWy9OdfWTu91q/6El9bKvqflz87s2K8m27nsu33UqbYPJgr3nY3zVHdof3VGZ1i14U2jNsS4jk444S5taPOmtOCME7Zixu7M5Z1tadJkA3UDDJqZZPftOzzacd6Pl14d/X7USeqZcOpWg+rA4UF2XJhwz6oa5t8bSZSDqqTN8acSZC/7HuiV+YTTqOoOF0YHMntywj03YvO9qfQbKUsbUfkG1FkSbGlz06dnEuDXU3alTDxmmt64NeLrDgaD5/Km3rw8DtcgsGrmBPLue+PPGupCn+e212XquAQIECBAgAABAgQIECBAgAABAgQIECBAgAABAgQIECBAgAABAgQIECBAgAABAgQIECBAgAABAgQIECBAgAABAgQIECBAgAABAgQIECBAgAABAgQIECBAgAABAgQIECBAgAABAgQIECBAgAABAgQIECBAgAABAgQIECBAgAABAgQIECBAgAABAgQIECBAgAABAgQIECBAgAABAgQIECBAgAABAgQIECBAgAABAgQIECBAgAABAgQIECBAgAABAgQIECBAgAABAgQIECBAgAABAgQIECBAgAABAgQIECBAgAABAgQIECBAgAABAgQIECBAgAABAgQIECBAgAABAgQIECBAgAABAgQIECBAgAABAgQIECBAgAABAgQIECBAgAABAgQIECBAgAABAgQIECBAgAABAgQIECBAgAABAgQIECBAgAABAgQIECBAgAABAgQIECBAgAABAgQIECBAgAABAgQIECBAgAABAgQIECBAgAABAgQIECBAgAABAgQIECBAgAABAgQIECBAgAABAgQIECBAgAABAgQIECBAgAABAgQIECBAgAABAgQIECBAgAABAgQIECBAgAABAgQIECBAgAABAgQIECBAgAABAgQIECBAgAABAgQIECBAgAABAgQIECBAgAABAgQIECBAgAABAgQIECBAgAABAgQIECBAgAABAgQIECBAgAABAgQIECBAgAABAgQIECBAgAABAgQIECBAgAABAgQIECBAgAABAgQIECBAgAABAgQIECBAgAABAgQIECBAgAABAgQIECBAgAABAgQIECBAgAABAgQIECBAgAABAgQIECBAgAABAgQIECBAgAABAgQIECBAgAABAgQIECBAgAABAgQIECBAgAABAgQIECBAgAABAgQIECBAgAABAgQIECBAgAABAgQIECBAgAABAgQIECBAgAABAgQIECBAgAABAgQIECBAgAABAgQIECBAgAABAgQIECBAgAABAgQIECBAgAABAgQIECBAgAABAgQIECBAgAABAgQIECBAgAABAgQIECBAgAABAgQIECBAgAABAgQIECBAgAABAgQIECBAgAABAgQIECBAgAABAgQIECBAgAABAgQIECBAgAABAgQIECBAgAABAgQItEDgf7DcTusL+DmcAAAAAElFTkSuQmCC;" vertex="1" parent="0CfnM0hkbXZemsLm9H7N-30">
          <mxGeometry x="10" y="13.75" width="92.5" height="92.5" as="geometry" />
        </mxCell>
        <mxCell id="0CfnM0hkbXZemsLm9H7N-35" value="" style="group" vertex="1" connectable="0" parent="1">
          <mxGeometry x="370" y="190" width="110" height="100" as="geometry" />
        </mxCell>
        <mxCell id="0CfnM0hkbXZemsLm9H7N-36" value="" style="rounded=0;whiteSpace=wrap;html=1;" vertex="1" parent="0CfnM0hkbXZemsLm9H7N-35">
          <mxGeometry y="30" width="110" height="60" as="geometry" />
        </mxCell>
        <mxCell id="0CfnM0hkbXZemsLm9H7N-37" value="Thing" style="rounded=0;whiteSpace=wrap;html=1;fillColor=#000000;fontColor=#FFFFFF;fontSize=16;" vertex="1" parent="0CfnM0hkbXZemsLm9H7N-35">
          <mxGeometry width="110" height="30" as="geometry" />
        </mxCell>
        <mxCell id="0CfnM0hkbXZemsLm9H7N-38" value="" style="rounded=0;whiteSpace=wrap;html=1;fillColor=#595959;fontColor=#FFFFFF;align=left;verticalAlign=top;" vertex="1" parent="0CfnM0hkbXZemsLm9H7N-35">
          <mxGeometry x="10" y="40" width="90" height="40" as="geometry" />
        </mxCell>
        <mxCell id="0CfnM0hkbXZemsLm9H7N-39" value="" style="shape=image;verticalLabelPosition=bottom;labelBackgroundColor=default;verticalAlign=top;aspect=fixed;imageAspect=0;image=data:image/png,iVBORw0KGgoAAAANSUhEUgAAAH0AAAB9CAYAAACPgGwlAAAAAXNSR0IArs4c6QAAAIRlWElmTU0AKgAAAAgABQESAAMAAAABAAEAAAEaAAUAAAABAAAASgEbAAUAAAABAAAAUgEoAAMAAAABAAIAAIdpAAQAAAABAAAAWgAAAAAAAADcAAAAAQAAANwAAAABAAOgAQADAAAAAQABAACgAgAEAAAAAQAAAH2gAwAEAAAAAQAAAH0AAAAAjw60YAAAAAlwSFlzAAAh1QAAIdUBBJy0nQAACLNJREFUeAHtXFuoVUUYXuccPYZhmualUsqkwEAIuhDR7aF6MIooJKKLFAQ+RT0EPgg9hJAVha8SQZBQGUXQgw/1UL1FZPXQBdLSojRNzVPauffNdv/H3926zKw1/zpzjt+Gw8ya+ef7/vm+NWvtPXvtk2V8UQEqQAWoABWgAlSAClABKkAFqAAVoAJUgApQASpABagAFaACVIAKUAEqQAWoABWgAlSAClABKkAFqAAVoAJUgApQASpABWaMAn1WmU7iZYHdh1cVrgH3IGhHq3hdfyxun3n65JMX05/XOJPbxsfHvzTIf8QHM5bhjismlk/uUWJc0u4VBawrgg9eh3QaeXHSnWw6Z2BMxJ6HzmnWrXQ9uemoDwwMzG/KCwxTX0zBm06e420UoOk2uiaNStOTtscmOZpuo2vSqDQ9aXtskqPpNromjUrTk7bHJjmabqNr0qg0PWl7bJKj6Ta6Jo1K05O2xyY5mm6ja9KoND1pe2ySo+k2uiaNStOTtscmuVlr+tDQ0DIbyfJRJyYmvnI9Pg965COcaVUY68+0xqtVPm9Wl0olXhcid1zVs2PgdXOayB3coLGK10HHnrMPZ50pzbqVDqHcI1oL64iRNwYr+G9f8V3cyMjI1Xk4gW0rfDkDcRlOBagAFaACVIAKUAEqQAWoABWgAmkrYLY5kzft7sZJXlduGz6rRvtZlCPw4Y/NKRMr4rbiE968spXNGbdT5V5IwO2Uef+dHjU5id92fZuXvE+bYPjySzw4X/PBL4oBzlzBKuPuiSmCi9puutIxIXdSjcfKOGSXCtxPg/fVptwhnMLVNVkOg0rsAI7it2yDQYNSCpazGKtmZ5O8BAflCz44iFsgY8C91WdMb4yMd2VvX9mxHof6eWWxug+x1+mxum/G1DGBG2USMZIOwZJYlFc24VY4V/ng4AQ7KGN84vNiZHzThZKHbd4myaNcFINM8KqwEDfgG1uF5fpDsEJiy7hj4RRxmL+Rwz3xeBG5UftYF3eNEX4uLFbm164D92Sv/1qRC9JtBEbnlgLz7y+LS64v9tnqi+cb5yuYL55vXGxeXzwdZ77SNRnraShA09PwodUsaHqrcqdBRtPT8KHVLGh6q3KnQUbT0/Ch1Sxoeqtyp0FG09PwodUsZq3p2Cy5uE0lsYs27PiwM/dDU15gdLCA+VJTrFbHT9cOFXgHY3KHYIXElpkRC6eIw3KlP+VI3QSKyC3asdffeO9b8lK5b5S2shIrs/PsgBpXFp7bJ2OB9VtuQOqNbgLdV6MfEwrI2NjYZz5zRvzdMgZlrW/51Pigk7buODevJmN9dJEY6ydn1oJo6lEn3Ku+wLH3jwvxBMkNkqgrQ55iAde+/v7+1Xo82j7Xx3n1JpyC58yTupRF3L18Lj5knoKfVIn5X6LP4Lr1OpMC1+K6fDDp3zqcMga8m2pw3yrjLUvTld6bOES4s7et4viTWPdocM8Dl4+oH4Hzfyu1Is/SbnC7Z95uKwiKNscCfDZTASpABagAFaACVIAKUAEqQAWowMxRoNXP6VoWfHa9Gcdnbaui7WN8Rl4f67O55tN18DyG4zdcG/a492Dn7g5wHtUxMeuHXsnw+7RsjmCOqV31sfHsu5UvZzH+I5XAV5atmg6xr0BGeyuzQgDMiPpDPuzbf4otz1uquGF+NE2ObM9yN3m06TqfFduyaNwat7du+S3bWVww3AkwZThMHXYC6xf6n5NBWH3yU9+pFSJ9ISVo+xy3Nhzcp4QXWJs0not1L90WWn9nQzZwfFe+4WVYv2wIH1OGV9TXypmlRXRiFyWj27H3PeKM77Y9gGHv6X6fOnivQdweia3iRvwWxD7vGy9xuty/Obtw4bVZ51ZRtKKL2kf3nUZatct2xXsZoCcVWq9juHBg7GrUO1JUGSZjdKm4H8L4t3RfWV2NC/7GS6/wInOL2sV0l5ul8aaXd4h3k4hbxzSM+Qnjn3UY2gjBLCtV/CMhhjtMnStwnijj0X3acN1ep255qTdd6SK8FrGOAIKDsRcAa6gKA7eGn3FruMzFNeEWXh+MQy9ma+atzn7UuRWt6KJ2vdIdjtVqN13pWoAmdSX6CR+cGIZrHrzzv08f59V7Dc+LCW2zWu1mpuMd8m43SZRvhk42lXg52fDO//1UcoqRh5npuDTe5RLEqtsYI1FfDFza/+jGPuM75lyLMzMdZnfeL2C1TLQpKniXdvm2t8V7eFu2oC2uGDxmpsdIrgkGTrZGGywh3BOj2b0h8dMdO2tNx+3lorbEXb4l29kWVwweM9PxBu6YS3B4eHhdjEQDMO7pxh4OGHNOhZqZjnur2wLNBgcHv2lTUVzWP4zFh49qT8bCSgnHzHSIfyDWRHHV+MBhoTwZgolLvHvsufYLH9V2uMGYi+kmVmGCk9n+wr4GHWam65zwMarRaofmnTdKMOF8jVtSl/t57R8s+P6ESnJYtCH+lySr3s0uF/yYpanpskJwqV+HVTdQJ3GMC34XDt4/havOeIxZghPMPeQRtMrxbwNPCW/jcjIz2xAyNd1NHJfkrV0BxpyYIWJow+QE8h2v4zVO1Xjk68Q+0o27vipe9y9+OJuvj5vUscrN/ltkK/cqiH4cAiwUEbQh0qZL3A5ex9XhcWmripe4vFIbDkOHsYJz/zMz4pxh/yiMteD9Xh17V+XbtqIvVora5QsXqy9aZAKtmO7IIOpyFAeF2LdsYrhw4CT6FSfRpXJcVcbgPPo2LnIH8+/zhabvzYaxwnNPyqqcQ/rNL++SDIQ81BXzUWkrK12se5XF+PZhda90WDC/+2xK4cg5sTgXP5j1LzmWeb+Pcc/HtWG4m3kUUQslZMeUAoc3Z7f3Lct24zSY51Y6/mfFX3NPZGuX7sh+nwpihQpQASpABagAFaACVIAKUAEqQAWoABWgAlSAClABKkAFqAAVoAJUgApQASpABagAFaACVIAKUAEqQAWoABVopMB/D4TyAgRqoO4AAAAASUVORK5CYII=;" vertex="1" parent="0CfnM0hkbXZemsLm9H7N-35">
          <mxGeometry x="30" y="35" width="50" height="50" as="geometry" />
        </mxCell>
        <mxCell id="0CfnM0hkbXZemsLm9H7N-40" value="" style="group" vertex="1" connectable="0" parent="1">
          <mxGeometry x="370" y="310" width="110" height="100" as="geometry" />
        </mxCell>
        <mxCell id="0CfnM0hkbXZemsLm9H7N-41" value="" style="rounded=0;whiteSpace=wrap;html=1;" vertex="1" parent="0CfnM0hkbXZemsLm9H7N-40">
          <mxGeometry y="30" width="110" height="60" as="geometry" />
        </mxCell>
        <mxCell id="0CfnM0hkbXZemsLm9H7N-42" value="Thing" style="rounded=0;whiteSpace=wrap;html=1;fillColor=#000000;fontColor=#FFFFFF;fontSize=16;" vertex="1" parent="0CfnM0hkbXZemsLm9H7N-40">
          <mxGeometry width="110" height="30" as="geometry" />
        </mxCell>
        <mxCell id="0CfnM0hkbXZemsLm9H7N-43" value="" style="rounded=0;whiteSpace=wrap;html=1;fillColor=#595959;fontColor=#FFFFFF;align=left;verticalAlign=top;" vertex="1" parent="0CfnM0hkbXZemsLm9H7N-40">
          <mxGeometry x="10" y="40" width="90" height="40" as="geometry" />
        </mxCell>
        <mxCell id="0CfnM0hkbXZemsLm9H7N-44" value="" style="shape=image;verticalLabelPosition=bottom;labelBackgroundColor=default;verticalAlign=top;aspect=fixed;imageAspect=0;image=data:image/png,iVBORw0KGgoAAAANSUhEUgAAAH0AAAB9CAYAAACPgGwlAAAAAXNSR0IArs4c6QAAAIRlWElmTU0AKgAAAAgABQESAAMAAAABAAEAAAEaAAUAAAABAAAASgEbAAUAAAABAAAAUgEoAAMAAAABAAIAAIdpAAQAAAABAAAAWgAAAAAAAADcAAAAAQAAANwAAAABAAOgAQADAAAAAQABAACgAgAEAAAAAQAAAH2gAwAEAAAAAQAAAH0AAAAAjw60YAAAAAlwSFlzAAAh1QAAIdUBBJy0nQAACLNJREFUeAHtXFuoVUUYXuccPYZhmualUsqkwEAIuhDR7aF6MIooJKKLFAQ+RT0EPgg9hJAVha8SQZBQGUXQgw/1UL1FZPXQBdLSojRNzVPauffNdv/H3926zKw1/zpzjt+Gw8ya+ef7/vm+NWvtPXvtk2V8UQEqQAWoABWgAlSAClABKkAFqAAVoAJUgApQASpABagAFaACVIAKUAEqQAWoABWgAlSAClABKkAFqAAVoAJUgApQASpABWaMAn1WmU7iZYHdh1cVrgH3IGhHq3hdfyxun3n65JMX05/XOJPbxsfHvzTIf8QHM5bhjismlk/uUWJc0u4VBawrgg9eh3QaeXHSnWw6Z2BMxJ6HzmnWrXQ9uemoDwwMzG/KCwxTX0zBm06e420UoOk2uiaNStOTtscmOZpuo2vSqDQ9aXtskqPpNromjUrTk7bHJjmabqNr0qg0PWl7bJKj6Ta6Jo1K05O2xyY5mm6ja9KoND1pe2ySo+k2uiaNStOTtscmuVlr+tDQ0DIbyfJRJyYmvnI9Pg965COcaVUY68+0xqtVPm9Wl0olXhcid1zVs2PgdXOayB3coLGK10HHnrMPZ50pzbqVDqHcI1oL64iRNwYr+G9f8V3cyMjI1Xk4gW0rfDkDcRlOBagAFaACVIAKUAEqQAWoABWgAmkrYLY5kzft7sZJXlduGz6rRvtZlCPw4Y/NKRMr4rbiE968spXNGbdT5V5IwO2Uef+dHjU5id92fZuXvE+bYPjySzw4X/PBL4oBzlzBKuPuiSmCi9puutIxIXdSjcfKOGSXCtxPg/fVptwhnMLVNVkOg0rsAI7it2yDQYNSCpazGKtmZ5O8BAflCz44iFsgY8C91WdMb4yMd2VvX9mxHof6eWWxug+x1+mxum/G1DGBG2USMZIOwZJYlFc24VY4V/ng4AQ7KGN84vNiZHzThZKHbd4myaNcFINM8KqwEDfgG1uF5fpDsEJiy7hj4RRxmL+Rwz3xeBG5UftYF3eNEX4uLFbm164D92Sv/1qRC9JtBEbnlgLz7y+LS64v9tnqi+cb5yuYL55vXGxeXzwdZ77SNRnraShA09PwodUsaHqrcqdBRtPT8KHVLGh6q3KnQUbT0/Ch1Sxoeqtyp0FG09PwodUsZq3p2Cy5uE0lsYs27PiwM/dDU15gdLCA+VJTrFbHT9cOFXgHY3KHYIXElpkRC6eIw3KlP+VI3QSKyC3asdffeO9b8lK5b5S2shIrs/PsgBpXFp7bJ2OB9VtuQOqNbgLdV6MfEwrI2NjYZz5zRvzdMgZlrW/51Pigk7buODevJmN9dJEY6ydn1oJo6lEn3Ku+wLH3jwvxBMkNkqgrQ55iAde+/v7+1Xo82j7Xx3n1JpyC58yTupRF3L18Lj5knoKfVIn5X6LP4Lr1OpMC1+K6fDDp3zqcMga8m2pw3yrjLUvTld6bOES4s7et4viTWPdocM8Dl4+oH4Hzfyu1Is/SbnC7Z95uKwiKNscCfDZTASpABagAFaACVIAKUAEqQAWowMxRoNXP6VoWfHa9Gcdnbaui7WN8Rl4f67O55tN18DyG4zdcG/a492Dn7g5wHtUxMeuHXsnw+7RsjmCOqV31sfHsu5UvZzH+I5XAV5atmg6xr0BGeyuzQgDMiPpDPuzbf4otz1uquGF+NE2ObM9yN3m06TqfFduyaNwat7du+S3bWVww3AkwZThMHXYC6xf6n5NBWH3yU9+pFSJ9ISVo+xy3Nhzcp4QXWJs0not1L90WWn9nQzZwfFe+4WVYv2wIH1OGV9TXypmlRXRiFyWj27H3PeKM77Y9gGHv6X6fOnivQdweia3iRvwWxD7vGy9xuty/Obtw4bVZ51ZRtKKL2kf3nUZatct2xXsZoCcVWq9juHBg7GrUO1JUGSZjdKm4H8L4t3RfWV2NC/7GS6/wInOL2sV0l5ul8aaXd4h3k4hbxzSM+Qnjn3UY2gjBLCtV/CMhhjtMnStwnijj0X3acN1ep255qTdd6SK8FrGOAIKDsRcAa6gKA7eGn3FruMzFNeEWXh+MQy9ma+atzn7UuRWt6KJ2vdIdjtVqN13pWoAmdSX6CR+cGIZrHrzzv08f59V7Dc+LCW2zWu1mpuMd8m43SZRvhk42lXg52fDO//1UcoqRh5npuDTe5RLEqtsYI1FfDFza/+jGPuM75lyLMzMdZnfeL2C1TLQpKniXdvm2t8V7eFu2oC2uGDxmpsdIrgkGTrZGGywh3BOj2b0h8dMdO2tNx+3lorbEXb4l29kWVwweM9PxBu6YS3B4eHhdjEQDMO7pxh4OGHNOhZqZjnur2wLNBgcHv2lTUVzWP4zFh49qT8bCSgnHzHSIfyDWRHHV+MBhoTwZgolLvHvsufYLH9V2uMGYi+kmVmGCk9n+wr4GHWam65zwMarRaofmnTdKMOF8jVtSl/t57R8s+P6ESnJYtCH+lySr3s0uF/yYpanpskJwqV+HVTdQJ3GMC34XDt4/havOeIxZghPMPeQRtMrxbwNPCW/jcjIz2xAyNd1NHJfkrV0BxpyYIWJow+QE8h2v4zVO1Xjk68Q+0o27vipe9y9+OJuvj5vUscrN/ltkK/cqiH4cAiwUEbQh0qZL3A5ex9XhcWmripe4vFIbDkOHsYJz/zMz4pxh/yiMteD9Xh17V+XbtqIvVora5QsXqy9aZAKtmO7IIOpyFAeF2LdsYrhw4CT6FSfRpXJcVcbgPPo2LnIH8+/zhabvzYaxwnNPyqqcQ/rNL++SDIQ81BXzUWkrK12se5XF+PZhda90WDC/+2xK4cg5sTgXP5j1LzmWeb+Pcc/HtWG4m3kUUQslZMeUAoc3Z7f3Lct24zSY51Y6/mfFX3NPZGuX7sh+nwpihQpQASpABagAFaACVIAKUAEqQAWoABWgAlSAClABKkAFqAAVoAJUgApQASpABagAFaACVIAKUAEqQAWoABVopMB/D4TyAgRqoO4AAAAASUVORK5CYII=;" vertex="1" parent="0CfnM0hkbXZemsLm9H7N-40">
          <mxGeometry x="30" y="35" width="50" height="50" as="geometry" />
        </mxCell>
        <mxCell id="0CfnM0hkbXZemsLm9H7N-45" style="edgeStyle=none;rounded=0;orthogonalLoop=1;jettySize=auto;html=1;exitX=1;exitY=0.5;exitDx=0;exitDy=0;startArrow=block;startFill=1;endArrow=block;endFill=1;strokeWidth=5;strokeColor=#E35500;entryX=0;entryY=0.5;entryDx=0;entryDy=0;" edge="1" parent="1" source="0CfnM0hkbXZemsLm9H7N-38" target="0CfnM0hkbXZemsLm9H7N-33">
          <mxGeometry relative="1" as="geometry">
            <mxPoint x="1040" y="401" as="sourcePoint" />
            <mxPoint x="830" y="320" as="targetPoint" />
            <Array as="points">
              <mxPoint x="500" y="250" />
              <mxPoint x="500" y="310" />
            </Array>
          </mxGeometry>
        </mxCell>
        <mxCell id="0CfnM0hkbXZemsLm9H7N-46" style="edgeStyle=none;rounded=0;orthogonalLoop=1;jettySize=auto;html=1;startArrow=block;startFill=1;endArrow=block;endFill=1;strokeWidth=5;strokeColor=#E35500;exitX=1;exitY=0.5;exitDx=0;exitDy=0;" edge="1" parent="1" source="0CfnM0hkbXZemsLm9H7N-43">
          <mxGeometry relative="1" as="geometry">
            <mxPoint x="790" y="310" as="sourcePoint" />
            <mxPoint x="540" y="310" as="targetPoint" />
            <Array as="points">
              <mxPoint x="500" y="370" />
              <mxPoint x="500" y="310" />
            </Array>
          </mxGeometry>
        </mxCell>
        <mxCell id="0CfnM0hkbXZemsLm9H7N-47" value="" style="group" vertex="1" connectable="0" parent="1">
          <mxGeometry x="850" y="250" width="110" height="110" as="geometry" />
        </mxCell>
        <mxCell id="0CfnM0hkbXZemsLm9H7N-48" value="" style="rounded=0;whiteSpace=wrap;html=1;" vertex="1" parent="0CfnM0hkbXZemsLm9H7N-47">
          <mxGeometry y="30" width="110" height="60" as="geometry" />
        </mxCell>
        <mxCell id="0CfnM0hkbXZemsLm9H7N-49" value="&lt;p style=&quot;line-height: 70%;&quot;&gt;&lt;font style=&quot;font-size: 16px;&quot;&gt;Data Lake&lt;/font&gt;&lt;/p&gt;" style="rounded=0;whiteSpace=wrap;html=1;fillColor=#000000;fontColor=#FFFFFF;fontSize=16;" vertex="1" parent="0CfnM0hkbXZemsLm9H7N-47">
          <mxGeometry width="110" height="30" as="geometry" />
        </mxCell>
        <mxCell id="0CfnM0hkbXZemsLm9H7N-50" value="" style="rounded=0;whiteSpace=wrap;html=1;fillColor=#595959;fontColor=#FFFFFF;align=left;verticalAlign=top;" vertex="1" parent="0CfnM0hkbXZemsLm9H7N-47">
          <mxGeometry x="10" y="40" width="90" height="40" as="geometry" />
        </mxCell>
        <mxCell id="0CfnM0hkbXZemsLm9H7N-51" value="" style="shape=image;verticalLabelPosition=bottom;labelBackgroundColor=default;verticalAlign=top;aspect=fixed;imageAspect=0;image=data:image/png,iVBORw0KGgoAAAANSUhEUgAAAEkAAABMCAYAAAAhvppvAAAAAXNSR0IArs4c6QAAAIRlWElmTU0AKgAAAAgABQESAAMAAAABAAEAAAEaAAUAAAABAAAASgEbAAUAAAABAAAAUgEoAAMAAAABAAIAAIdpAAQAAAABAAAAWgAAAAAAAADcAAAAAQAAANwAAAABAAOgAQADAAAAAQABAACgAgAEAAAAAQAAAEmgAwAEAAAAAQAAAEwAAAAAWbWpHgAAAAlwSFlzAAAh1QAAIdUBBJy0nQAACiRJREFUeAHtm2+MXFUZxs+9M7Oz/2prK9sWsLZU1LhUTCMpqQ22JkIhGkK0UD9IlJrUGDHoBzQxIUQLGKJ+UFMjmmhDNH6BRotVISIYCwFaCBGsbQFLW9put3S3u9vd+XPnHn/PnZ3tzs7szp2ZO9M2uW/z7Llzzrnnfc9z3vOec8+9NSaWmIGYgZiBmIGYgZiBmIGYgZiBBhlwGryv4dvsbpMeGzPvGfeM21OlFdtprGtNwiaN71BnfNyY7m5jSExXwVgnYRyV2c6VtvfGVwrGzBtxHCdfpanIspKRtRSyobMjpt+z5vbOlPpsKgeJTGtMh80Zj9JEKm0s9U3KGqfgQI5vElCSd1OmYDx72iTNo6h+O6T6hqq1naRCwVyWSJibrDULIKGSJLphHQgSGY4pOC6eA0kSEt0REEUdY32bI0laa/+IN71SrBX937aT5PombVyzjM4udKtSNNlJ93xnIatcKHPJdBJBpc0UJiAqB1Gvl1eM5tc0U6JpcGYrGN8DPgRWCallt6wwiQ7pxREMbtE4rO9LXQqsAV+k/cuBfkcq7fCkqzH8x4zySixPdaz8aqc38to8kzmGfwSdbKhDLvMwmIDGbPV9f43rut8mIw1+Ak6AyKQdJGlkO8F94GDuzV+vsRMn73ccfz6/Z04ksuoW+HF3QNS7DMRDDIjkd1y/WndLs9zQDpJcOpBMJBJvYcNrmWO7FxOLCk6Tk8IqjBc59iHkGMQ8gZ75EHazCvidIn/vLP2uK7sdJBkML/XIYWUjGNVl4+yVixFdsU7bKAc9z5EqkIsosu0w6VHIypI2LC0nKZ/Py3iDJxWNZB8kJxBRs861EqVzdMt6eWPHB9kATGzxfe/zilDiHt64O7GE9PZCbiyVTCV+SPbAHE3VLGo5STMtKAxBEB1x59IskuYShfzRQXPu2W/CSvIjxXXy/A0OewNr/YXW977M6Gyn5OImKZVKuQV2kIgHnELWJIOFyS8GlVp86Maq4mSMd/IlWnQnXbSyFpvQtE/4qyypL2eu8ayvpVlqe56nAKrSgCQM79C8aDYuWZ5K7ATTbW6xHcHknrtSrdKWbyaTyWQpTBdHlMeKWkZFWZ7TE2CT0nKSsK80o2SsRWH7SGqaniK77SCpFDNEjuNYntvbJHow5lilNEgNa205ScSknLYACOEhWIcy+oHlEY2zWqsuKGCha15Py0maFpOkS4Pry+xWM1RcK4oPc9UpDJ/bNtcvM0kHay0mqjTHsqXJXmZAfT9aTlLFjvsM3uQaXzsnjXapM2VmK1OuNrOwlKe0hgRVuZ9dUojaczfWcpIq1MuLCOFBJ5o2v6L1yowI1tKWk8SOWw+a5cbP+FleGO2vjkSFP9atoOWBu26LLsIbYpJCDEpM0sVAEpvJBCeGMiVY0LgsLsrBuU8ICxusEmXYa4cnlQ5q9ZZVBxs6rG+XWOs1H7hburqxqulNdi/nSfKeYEBsHo/S0t+O5R8duaK2pgalpSRh2RZw3+TRrTzKFo4H26TgJEw8VZ0WVTOpPF1qkDxVHKat6e1WuY50uuE5HJvaK8BPwW709RCPfgBOch1MNz/H21Ydv2lTqShVDQphtVDtvml5ajtABNMtUpLo2kfBl4A89D/gRU4AXoKwMa415Swu1NSbC9qoRxwn2fzEjowkiFiK9RvBJ4Heon6XY9u/kxYmj0oCklCo8W65BNPNcdzem7+1HNsUGxuWyEjCgnvAYnA35LwBNKkumCgUOcmOVPen7vw+l+uaMSRKkj6MIZpmR0MbBI18h2RY8YqvCdSzCALtef0chLqJy/h9N9505/n8+q6aWt1QrPv5Ds2cA2+A/XjQXNOJdyVpk0imXVPIOd3rN5uOZauMx6clw0Pv+ol9j7nusJY/3jdleSk7tUTRcgNiCxzUHD/wS3SI+qXY+wXSv2KjYmRoqYsklMjsLnAN6AO9QLFGwXg/qPhIYfI8idfbCelas+gbO9Zl/v20zQ0PjKSu3/Rq9+pbBvIF3w4ePeJ1u94NiZFTixzfd21+PJ098JwpjPDaqFD7lUfpJFKbe10L7M/s0AObdvbsCl6Db0L/XeAf9GMcorR+hpK6SKJFBUBNK8WfT4B5YBSonYfAEVAmGCNJYfASAvjmnrV3rOtae8fhU8NjZ4e8wr3zpn3UgPGPcPN1QF+h9J15+Nbe7Fv7Uv654azJnhu17Nfpu4aqGCb4RJB/lo+cJHrd6bg9CxbYQjbrZycyEDXBkFr0v0O5bFsGFDfl+cFZO2lNkWeEEpToIP9W8CPwAHgelF4fy2iRhWHl0w1P2kDeLjzpFEQ9SLqTeu6JEyfs0NDQSH9/P1GpKOhYwFXxMSaT6baZ4R30f7XJZ5489Lmrti685/4rOubPd50cO3i3+GY25SQc738vD4/+4vdnJrqMe9VTR571xoZ2Hv/6tT/TkB4eNKc3PMPXldYup22tvDeA7dhU4fXkV5VQJKFAhm8F69kYvoBHPMb1MRRNdbBq62QODAws7unpubGzs3MEgvZxz7HZ6k7PR6dsk1ddCT4IVjM/xhmNCdIugozeb6uO4o1CwPGTY+bBJb3mn1z/Bj0Pk04J7ck7VwBtcrdS/uRUYY0LeUAYWU+lD4CDEPQH0iNhCKKe6evrG9yzZ8/j27Zt2xWWIN1HXU2TF7n8E/gLGMLYw6SDxvcPWc/bz4ApDmrTegBk+zq9LaTvIz+5d+/eokeSIaEtTa8RsAiIsGiFUXgEfAesjLbl6FrDtivB4+B1pvW9o6Oj2v2XyWSdE6Q3lRXU+BHWk1bRjr5ufbNGexey+CTK7wK34e1ppvdXqhiTh6DnyT9bpWzWrLCr239pQV+NXbTCALI1NcOQMEH6K16KaqGZKfrC5XoytUCElpokoVTe9gJ4O3SrF7AiJGjPJq+qJtrTaW9XFq+qVZyeF2a6afXQl7JScMkKg609ngjS6ioiQ0tNkhgZkaTt/DWhW704Ky7FLE21v4F36jGx5nSbbExLp/5rQhekac5firIWo78HNoDj9XSgpidNNvYMqR5kNRKXnDC4eoR6P3gKDDHQOncILWFJ+jMtqu5nUXgdqLZyhFbajorYqKPkbiDPWQfOgN+CugiifrivzmD+ZZRdS/2NQPFpHr91NKJtgZTqmU2x64IJ9jgo105aAyi8F6wAtwGOEszT2Kg9UmsFQz4OngCS7eDToGJn21orqreOHR2gH2wEXwOPgiz4OfhY9bvC5Yr90IIyxaXLgZbSz4CrgQK5TgC0ReDZc+qoTJ6lKaq8sAsEVQPRxlDt6QBvuo26Vnsqm57Pz0BXmjTNs5uOQg6x8/4XqXbXp/EiTvEak5mKQrcyOTrLJ2/QU7hOBFJAnZCIIE1Fub6IrGc6ajC0l9G9IqoUO3UtHRlQ0sNlIOpLSYdI0inFwWJR/DdmIGYgZiBmIGYgZiBmIGYgZiBmIGYgZiBmIGYgZiAMA/8HzSrt1D8LWLYAAAAASUVORK5CYII=;" vertex="1" parent="0CfnM0hkbXZemsLm9H7N-47">
          <mxGeometry x="30.9" y="35.129999999999995" width="48.2" height="49.75" as="geometry" />
        </mxCell>
        <mxCell id="0CfnM0hkbXZemsLm9H7N-52" value="" style="group" vertex="1" connectable="0" parent="1">
          <mxGeometry x="690" y="190" width="110" height="100" as="geometry" />
        </mxCell>
        <mxCell id="0CfnM0hkbXZemsLm9H7N-53" value="" style="rounded=0;whiteSpace=wrap;html=1;" vertex="1" parent="0CfnM0hkbXZemsLm9H7N-52">
          <mxGeometry y="30" width="110" height="60" as="geometry" />
        </mxCell>
        <mxCell id="0CfnM0hkbXZemsLm9H7N-54" value="Thing" style="rounded=0;whiteSpace=wrap;html=1;fillColor=#000000;fontColor=#FFFFFF;fontSize=16;" vertex="1" parent="0CfnM0hkbXZemsLm9H7N-52">
          <mxGeometry width="110" height="30" as="geometry" />
        </mxCell>
        <mxCell id="0CfnM0hkbXZemsLm9H7N-55" value="" style="rounded=0;whiteSpace=wrap;html=1;fillColor=#595959;fontColor=#FFFFFF;align=left;verticalAlign=top;" vertex="1" parent="0CfnM0hkbXZemsLm9H7N-52">
          <mxGeometry x="10" y="40" width="90" height="40" as="geometry" />
        </mxCell>
        <mxCell id="0CfnM0hkbXZemsLm9H7N-56" value="" style="shape=image;verticalLabelPosition=bottom;labelBackgroundColor=default;verticalAlign=top;aspect=fixed;imageAspect=0;image=data:image/png,iVBORw0KGgoAAAANSUhEUgAAAH0AAAB9CAYAAACPgGwlAAAAAXNSR0IArs4c6QAAAIRlWElmTU0AKgAAAAgABQESAAMAAAABAAEAAAEaAAUAAAABAAAASgEbAAUAAAABAAAAUgEoAAMAAAABAAIAAIdpAAQAAAABAAAAWgAAAAAAAADcAAAAAQAAANwAAAABAAOgAQADAAAAAQABAACgAgAEAAAAAQAAAH2gAwAEAAAAAQAAAH0AAAAAjw60YAAAAAlwSFlzAAAh1QAAIdUBBJy0nQAACLNJREFUeAHtXFuoVUUYXuccPYZhmualUsqkwEAIuhDR7aF6MIooJKKLFAQ+RT0EPgg9hJAVha8SQZBQGUXQgw/1UL1FZPXQBdLSojRNzVPauffNdv/H3926zKw1/zpzjt+Gw8ya+ef7/vm+NWvtPXvtk2V8UQEqQAWoABWgAlSAClABKkAFqAAVoAJUgApQASpABagAFaACVIAKUAEqQAWoABWgAlSAClABKkAFqAAVoAJUgApQASpABWaMAn1WmU7iZYHdh1cVrgH3IGhHq3hdfyxun3n65JMX05/XOJPbxsfHvzTIf8QHM5bhjismlk/uUWJc0u4VBawrgg9eh3QaeXHSnWw6Z2BMxJ6HzmnWrXQ9uemoDwwMzG/KCwxTX0zBm06e420UoOk2uiaNStOTtscmOZpuo2vSqDQ9aXtskqPpNromjUrTk7bHJjmabqNr0qg0PWl7bJKj6Ta6Jo1K05O2xyY5mm6ja9KoND1pe2ySo+k2uiaNStOTtscmuVlr+tDQ0DIbyfJRJyYmvnI9Pg965COcaVUY68+0xqtVPm9Wl0olXhcid1zVs2PgdXOayB3coLGK10HHnrMPZ50pzbqVDqHcI1oL64iRNwYr+G9f8V3cyMjI1Xk4gW0rfDkDcRlOBagAFaACVIAKUAEqQAWoABWgAmkrYLY5kzft7sZJXlduGz6rRvtZlCPw4Y/NKRMr4rbiE968spXNGbdT5V5IwO2Uef+dHjU5id92fZuXvE+bYPjySzw4X/PBL4oBzlzBKuPuiSmCi9puutIxIXdSjcfKOGSXCtxPg/fVptwhnMLVNVkOg0rsAI7it2yDQYNSCpazGKtmZ5O8BAflCz44iFsgY8C91WdMb4yMd2VvX9mxHof6eWWxug+x1+mxum/G1DGBG2USMZIOwZJYlFc24VY4V/ng4AQ7KGN84vNiZHzThZKHbd4myaNcFINM8KqwEDfgG1uF5fpDsEJiy7hj4RRxmL+Rwz3xeBG5UftYF3eNEX4uLFbm164D92Sv/1qRC9JtBEbnlgLz7y+LS64v9tnqi+cb5yuYL55vXGxeXzwdZ77SNRnraShA09PwodUsaHqrcqdBRtPT8KHVLGh6q3KnQUbT0/Ch1Sxoeqtyp0FG09PwodUsZq3p2Cy5uE0lsYs27PiwM/dDU15gdLCA+VJTrFbHT9cOFXgHY3KHYIXElpkRC6eIw3KlP+VI3QSKyC3asdffeO9b8lK5b5S2shIrs/PsgBpXFp7bJ2OB9VtuQOqNbgLdV6MfEwrI2NjYZz5zRvzdMgZlrW/51Pigk7buODevJmN9dJEY6ydn1oJo6lEn3Ku+wLH3jwvxBMkNkqgrQ55iAde+/v7+1Xo82j7Xx3n1JpyC58yTupRF3L18Lj5knoKfVIn5X6LP4Lr1OpMC1+K6fDDp3zqcMga8m2pw3yrjLUvTld6bOES4s7et4viTWPdocM8Dl4+oH4Hzfyu1Is/SbnC7Z95uKwiKNscCfDZTASpABagAFaACVIAKUAEqQAWowMxRoNXP6VoWfHa9Gcdnbaui7WN8Rl4f67O55tN18DyG4zdcG/a492Dn7g5wHtUxMeuHXsnw+7RsjmCOqV31sfHsu5UvZzH+I5XAV5atmg6xr0BGeyuzQgDMiPpDPuzbf4otz1uquGF+NE2ObM9yN3m06TqfFduyaNwat7du+S3bWVww3AkwZThMHXYC6xf6n5NBWH3yU9+pFSJ9ISVo+xy3Nhzcp4QXWJs0not1L90WWn9nQzZwfFe+4WVYv2wIH1OGV9TXypmlRXRiFyWj27H3PeKM77Y9gGHv6X6fOnivQdweia3iRvwWxD7vGy9xuty/Obtw4bVZ51ZRtKKL2kf3nUZatct2xXsZoCcVWq9juHBg7GrUO1JUGSZjdKm4H8L4t3RfWV2NC/7GS6/wInOL2sV0l5ul8aaXd4h3k4hbxzSM+Qnjn3UY2gjBLCtV/CMhhjtMnStwnijj0X3acN1ep255qTdd6SK8FrGOAIKDsRcAa6gKA7eGn3FruMzFNeEWXh+MQy9ma+atzn7UuRWt6KJ2vdIdjtVqN13pWoAmdSX6CR+cGIZrHrzzv08f59V7Dc+LCW2zWu1mpuMd8m43SZRvhk42lXg52fDO//1UcoqRh5npuDTe5RLEqtsYI1FfDFza/+jGPuM75lyLMzMdZnfeL2C1TLQpKniXdvm2t8V7eFu2oC2uGDxmpsdIrgkGTrZGGywh3BOj2b0h8dMdO2tNx+3lorbEXb4l29kWVwweM9PxBu6YS3B4eHhdjEQDMO7pxh4OGHNOhZqZjnur2wLNBgcHv2lTUVzWP4zFh49qT8bCSgnHzHSIfyDWRHHV+MBhoTwZgolLvHvsufYLH9V2uMGYi+kmVmGCk9n+wr4GHWam65zwMarRaofmnTdKMOF8jVtSl/t57R8s+P6ESnJYtCH+lySr3s0uF/yYpanpskJwqV+HVTdQJ3GMC34XDt4/havOeIxZghPMPeQRtMrxbwNPCW/jcjIz2xAyNd1NHJfkrV0BxpyYIWJow+QE8h2v4zVO1Xjk68Q+0o27vipe9y9+OJuvj5vUscrN/ltkK/cqiH4cAiwUEbQh0qZL3A5ex9XhcWmripe4vFIbDkOHsYJz/zMz4pxh/yiMteD9Xh17V+XbtqIvVora5QsXqy9aZAKtmO7IIOpyFAeF2LdsYrhw4CT6FSfRpXJcVcbgPPo2LnIH8+/zhabvzYaxwnNPyqqcQ/rNL++SDIQ81BXzUWkrK12se5XF+PZhda90WDC/+2xK4cg5sTgXP5j1LzmWeb+Pcc/HtWG4m3kUUQslZMeUAoc3Z7f3Lct24zSY51Y6/mfFX3NPZGuX7sh+nwpihQpQASpABagAFaACVIAKUAEqQAWoABWgAlSAClABKkAFqAAVoAJUgApQASpABagAFaACVIAKUAEqQAWoABVopMB/D4TyAgRqoO4AAAAASUVORK5CYII=;" vertex="1" parent="0CfnM0hkbXZemsLm9H7N-52">
          <mxGeometry x="30" y="35" width="50" height="50" as="geometry" />
        </mxCell>
        <mxCell id="0CfnM0hkbXZemsLm9H7N-57" value="" style="group" vertex="1" connectable="0" parent="1">
          <mxGeometry x="690" y="310" width="110" height="100" as="geometry" />
        </mxCell>
        <mxCell id="0CfnM0hkbXZemsLm9H7N-58" value="" style="rounded=0;whiteSpace=wrap;html=1;" vertex="1" parent="0CfnM0hkbXZemsLm9H7N-57">
          <mxGeometry y="30" width="110" height="60" as="geometry" />
        </mxCell>
        <mxCell id="0CfnM0hkbXZemsLm9H7N-59" value="Thing" style="rounded=0;whiteSpace=wrap;html=1;fillColor=#000000;fontColor=#FFFFFF;fontSize=16;" vertex="1" parent="0CfnM0hkbXZemsLm9H7N-57">
          <mxGeometry width="110" height="30" as="geometry" />
        </mxCell>
        <mxCell id="0CfnM0hkbXZemsLm9H7N-60" value="" style="rounded=0;whiteSpace=wrap;html=1;fillColor=#595959;fontColor=#FFFFFF;align=left;verticalAlign=top;" vertex="1" parent="0CfnM0hkbXZemsLm9H7N-57">
          <mxGeometry x="10" y="40" width="90" height="40" as="geometry" />
        </mxCell>
        <mxCell id="0CfnM0hkbXZemsLm9H7N-61" value="" style="shape=image;verticalLabelPosition=bottom;labelBackgroundColor=default;verticalAlign=top;aspect=fixed;imageAspect=0;image=data:image/png,iVBORw0KGgoAAAANSUhEUgAAAH0AAAB9CAYAAACPgGwlAAAAAXNSR0IArs4c6QAAAIRlWElmTU0AKgAAAAgABQESAAMAAAABAAEAAAEaAAUAAAABAAAASgEbAAUAAAABAAAAUgEoAAMAAAABAAIAAIdpAAQAAAABAAAAWgAAAAAAAADcAAAAAQAAANwAAAABAAOgAQADAAAAAQABAACgAgAEAAAAAQAAAH2gAwAEAAAAAQAAAH0AAAAAjw60YAAAAAlwSFlzAAAh1QAAIdUBBJy0nQAACLNJREFUeAHtXFuoVUUYXuccPYZhmualUsqkwEAIuhDR7aF6MIooJKKLFAQ+RT0EPgg9hJAVha8SQZBQGUXQgw/1UL1FZPXQBdLSojRNzVPauffNdv/H3926zKw1/zpzjt+Gw8ya+ef7/vm+NWvtPXvtk2V8UQEqQAWoABWgAlSAClABKkAFqAAVoAJUgApQASpABagAFaACVIAKUAEqQAWoABWgAlSAClABKkAFqAAVoAJUgApQASpABWaMAn1WmU7iZYHdh1cVrgH3IGhHq3hdfyxun3n65JMX05/XOJPbxsfHvzTIf8QHM5bhjismlk/uUWJc0u4VBawrgg9eh3QaeXHSnWw6Z2BMxJ6HzmnWrXQ9uemoDwwMzG/KCwxTX0zBm06e420UoOk2uiaNStOTtscmOZpuo2vSqDQ9aXtskqPpNromjUrTk7bHJjmabqNr0qg0PWl7bJKj6Ta6Jo1K05O2xyY5mm6ja9KoND1pe2ySo+k2uiaNStOTtscmuVlr+tDQ0DIbyfJRJyYmvnI9Pg965COcaVUY68+0xqtVPm9Wl0olXhcid1zVs2PgdXOayB3coLGK10HHnrMPZ50pzbqVDqHcI1oL64iRNwYr+G9f8V3cyMjI1Xk4gW0rfDkDcRlOBagAFaACVIAKUAEqQAWoABWgAmkrYLY5kzft7sZJXlduGz6rRvtZlCPw4Y/NKRMr4rbiE968spXNGbdT5V5IwO2Uef+dHjU5id92fZuXvE+bYPjySzw4X/PBL4oBzlzBKuPuiSmCi9puutIxIXdSjcfKOGSXCtxPg/fVptwhnMLVNVkOg0rsAI7it2yDQYNSCpazGKtmZ5O8BAflCz44iFsgY8C91WdMb4yMd2VvX9mxHof6eWWxug+x1+mxum/G1DGBG2USMZIOwZJYlFc24VY4V/ng4AQ7KGN84vNiZHzThZKHbd4myaNcFINM8KqwEDfgG1uF5fpDsEJiy7hj4RRxmL+Rwz3xeBG5UftYF3eNEX4uLFbm164D92Sv/1qRC9JtBEbnlgLz7y+LS64v9tnqi+cb5yuYL55vXGxeXzwdZ77SNRnraShA09PwodUsaHqrcqdBRtPT8KHVLGh6q3KnQUbT0/Ch1Sxoeqtyp0FG09PwodUsZq3p2Cy5uE0lsYs27PiwM/dDU15gdLCA+VJTrFbHT9cOFXgHY3KHYIXElpkRC6eIw3KlP+VI3QSKyC3asdffeO9b8lK5b5S2shIrs/PsgBpXFp7bJ2OB9VtuQOqNbgLdV6MfEwrI2NjYZz5zRvzdMgZlrW/51Pigk7buODevJmN9dJEY6ydn1oJo6lEn3Ku+wLH3jwvxBMkNkqgrQ55iAde+/v7+1Xo82j7Xx3n1JpyC58yTupRF3L18Lj5knoKfVIn5X6LP4Lr1OpMC1+K6fDDp3zqcMga8m2pw3yrjLUvTld6bOES4s7et4viTWPdocM8Dl4+oH4Hzfyu1Is/SbnC7Z95uKwiKNscCfDZTASpABagAFaACVIAKUAEqQAWowMxRoNXP6VoWfHa9Gcdnbaui7WN8Rl4f67O55tN18DyG4zdcG/a492Dn7g5wHtUxMeuHXsnw+7RsjmCOqV31sfHsu5UvZzH+I5XAV5atmg6xr0BGeyuzQgDMiPpDPuzbf4otz1uquGF+NE2ObM9yN3m06TqfFduyaNwat7du+S3bWVww3AkwZThMHXYC6xf6n5NBWH3yU9+pFSJ9ISVo+xy3Nhzcp4QXWJs0not1L90WWn9nQzZwfFe+4WVYv2wIH1OGV9TXypmlRXRiFyWj27H3PeKM77Y9gGHv6X6fOnivQdweia3iRvwWxD7vGy9xuty/Obtw4bVZ51ZRtKKL2kf3nUZatct2xXsZoCcVWq9juHBg7GrUO1JUGSZjdKm4H8L4t3RfWV2NC/7GS6/wInOL2sV0l5ul8aaXd4h3k4hbxzSM+Qnjn3UY2gjBLCtV/CMhhjtMnStwnijj0X3acN1ep255qTdd6SK8FrGOAIKDsRcAa6gKA7eGn3FruMzFNeEWXh+MQy9ma+atzn7UuRWt6KJ2vdIdjtVqN13pWoAmdSX6CR+cGIZrHrzzv08f59V7Dc+LCW2zWu1mpuMd8m43SZRvhk42lXg52fDO//1UcoqRh5npuDTe5RLEqtsYI1FfDFza/+jGPuM75lyLMzMdZnfeL2C1TLQpKniXdvm2t8V7eFu2oC2uGDxmpsdIrgkGTrZGGywh3BOj2b0h8dMdO2tNx+3lorbEXb4l29kWVwweM9PxBu6YS3B4eHhdjEQDMO7pxh4OGHNOhZqZjnur2wLNBgcHv2lTUVzWP4zFh49qT8bCSgnHzHSIfyDWRHHV+MBhoTwZgolLvHvsufYLH9V2uMGYi+kmVmGCk9n+wr4GHWam65zwMarRaofmnTdKMOF8jVtSl/t57R8s+P6ESnJYtCH+lySr3s0uF/yYpanpskJwqV+HVTdQJ3GMC34XDt4/havOeIxZghPMPeQRtMrxbwNPCW/jcjIz2xAyNd1NHJfkrV0BxpyYIWJow+QE8h2v4zVO1Xjk68Q+0o27vipe9y9+OJuvj5vUscrN/ltkK/cqiH4cAiwUEbQh0qZL3A5ex9XhcWmripe4vFIbDkOHsYJz/zMz4pxh/yiMteD9Xh17V+XbtqIvVora5QsXqy9aZAKtmO7IIOpyFAeF2LdsYrhw4CT6FSfRpXJcVcbgPPo2LnIH8+/zhabvzYaxwnNPyqqcQ/rNL++SDIQ81BXzUWkrK12se5XF+PZhda90WDC/+2xK4cg5sTgXP5j1LzmWeb+Pcc/HtWG4m3kUUQslZMeUAoc3Z7f3Lct24zSY51Y6/mfFX3NPZGuX7sh+nwpihQpQASpABagAFaACVIAKUAEqQAWoABWgAlSAClABKkAFqAAVoAJUgApQASpABagAFaACVIAKUAEqQAWoABVopMB/D4TyAgRqoO4AAAAASUVORK5CYII=;" vertex="1" parent="0CfnM0hkbXZemsLm9H7N-57">
          <mxGeometry x="30" y="35" width="50" height="50" as="geometry" />
        </mxCell>
        <mxCell id="0CfnM0hkbXZemsLm9H7N-62" style="edgeStyle=none;rounded=0;orthogonalLoop=1;jettySize=auto;html=1;exitX=1;exitY=0.5;exitDx=0;exitDy=0;startArrow=block;startFill=1;endArrow=block;endFill=1;strokeWidth=5;strokeColor=#E35500;entryX=0;entryY=0.5;entryDx=0;entryDy=0;" edge="1" parent="1" source="0CfnM0hkbXZemsLm9H7N-55" target="0CfnM0hkbXZemsLm9H7N-50">
          <mxGeometry relative="1" as="geometry">
            <mxPoint x="1360" y="401" as="sourcePoint" />
            <mxPoint x="1150" y="320" as="targetPoint" />
            <Array as="points">
              <mxPoint x="820" y="250" />
              <mxPoint x="820" y="310" />
            </Array>
          </mxGeometry>
        </mxCell>
        <mxCell id="0CfnM0hkbXZemsLm9H7N-63" style="edgeStyle=none;rounded=0;orthogonalLoop=1;jettySize=auto;html=1;startArrow=block;startFill=1;endArrow=block;endFill=1;strokeWidth=5;strokeColor=#E35500;exitX=1;exitY=0.5;exitDx=0;exitDy=0;" edge="1" parent="1" source="0CfnM0hkbXZemsLm9H7N-60">
          <mxGeometry relative="1" as="geometry">
            <mxPoint x="1110" y="310" as="sourcePoint" />
            <mxPoint x="860" y="310" as="targetPoint" />
            <Array as="points">
              <mxPoint x="820" y="370" />
              <mxPoint x="820" y="310" />
            </Array>
          </mxGeometry>
        </mxCell>
        <mxCell id="0CfnM0hkbXZemsLm9H7N-64" value="" style="group" vertex="1" connectable="0" parent="1">
          <mxGeometry x="1170" y="250" width="110" height="100" as="geometry" />
        </mxCell>
        <mxCell id="0CfnM0hkbXZemsLm9H7N-65" value="" style="rounded=0;whiteSpace=wrap;html=1;" vertex="1" parent="0CfnM0hkbXZemsLm9H7N-64">
          <mxGeometry y="30" width="110" height="60" as="geometry" />
        </mxCell>
        <mxCell id="0CfnM0hkbXZemsLm9H7N-66" value="Thing" style="rounded=0;whiteSpace=wrap;html=1;fillColor=#000000;fontColor=#FFFFFF;fontSize=16;" vertex="1" parent="0CfnM0hkbXZemsLm9H7N-64">
          <mxGeometry width="110" height="30" as="geometry" />
        </mxCell>
        <mxCell id="0CfnM0hkbXZemsLm9H7N-67" value="" style="rounded=0;whiteSpace=wrap;html=1;fillColor=#595959;fontColor=#FFFFFF;align=left;verticalAlign=top;" vertex="1" parent="0CfnM0hkbXZemsLm9H7N-64">
          <mxGeometry x="10" y="40" width="90" height="40" as="geometry" />
        </mxCell>
        <mxCell id="0CfnM0hkbXZemsLm9H7N-68" value="" style="shape=image;verticalLabelPosition=bottom;labelBackgroundColor=default;verticalAlign=top;aspect=fixed;imageAspect=0;image=data:image/png,iVBORw0KGgoAAAANSUhEUgAAAH0AAAB9CAYAAACPgGwlAAAAAXNSR0IArs4c6QAAAIRlWElmTU0AKgAAAAgABQESAAMAAAABAAEAAAEaAAUAAAABAAAASgEbAAUAAAABAAAAUgEoAAMAAAABAAIAAIdpAAQAAAABAAAAWgAAAAAAAADcAAAAAQAAANwAAAABAAOgAQADAAAAAQABAACgAgAEAAAAAQAAAH2gAwAEAAAAAQAAAH0AAAAAjw60YAAAAAlwSFlzAAAh1QAAIdUBBJy0nQAACLNJREFUeAHtXFuoVUUYXuccPYZhmualUsqkwEAIuhDR7aF6MIooJKKLFAQ+RT0EPgg9hJAVha8SQZBQGUXQgw/1UL1FZPXQBdLSojRNzVPauffNdv/H3926zKw1/zpzjt+Gw8ya+ef7/vm+NWvtPXvtk2V8UQEqQAWoABWgAlSAClABKkAFqAAVoAJUgApQASpABagAFaACVIAKUAEqQAWoABWgAlSAClABKkAFqAAVoAJUgApQASpABWaMAn1WmU7iZYHdh1cVrgH3IGhHq3hdfyxun3n65JMX05/XOJPbxsfHvzTIf8QHM5bhjismlk/uUWJc0u4VBawrgg9eh3QaeXHSnWw6Z2BMxJ6HzmnWrXQ9uemoDwwMzG/KCwxTX0zBm06e420UoOk2uiaNStOTtscmOZpuo2vSqDQ9aXtskqPpNromjUrTk7bHJjmabqNr0qg0PWl7bJKj6Ta6Jo1K05O2xyY5mm6ja9KoND1pe2ySo+k2uiaNStOTtscmuVlr+tDQ0DIbyfJRJyYmvnI9Pg965COcaVUY68+0xqtVPm9Wl0olXhcid1zVs2PgdXOayB3coLGK10HHnrMPZ50pzbqVDqHcI1oL64iRNwYr+G9f8V3cyMjI1Xk4gW0rfDkDcRlOBagAFaACVIAKUAEqQAWoABWgAmkrYLY5kzft7sZJXlduGz6rRvtZlCPw4Y/NKRMr4rbiE968spXNGbdT5V5IwO2Uef+dHjU5id92fZuXvE+bYPjySzw4X/PBL4oBzlzBKuPuiSmCi9puutIxIXdSjcfKOGSXCtxPg/fVptwhnMLVNVkOg0rsAI7it2yDQYNSCpazGKtmZ5O8BAflCz44iFsgY8C91WdMb4yMd2VvX9mxHof6eWWxug+x1+mxum/G1DGBG2USMZIOwZJYlFc24VY4V/ng4AQ7KGN84vNiZHzThZKHbd4myaNcFINM8KqwEDfgG1uF5fpDsEJiy7hj4RRxmL+Rwz3xeBG5UftYF3eNEX4uLFbm164D92Sv/1qRC9JtBEbnlgLz7y+LS64v9tnqi+cb5yuYL55vXGxeXzwdZ77SNRnraShA09PwodUsaHqrcqdBRtPT8KHVLGh6q3KnQUbT0/Ch1Sxoeqtyp0FG09PwodUsZq3p2Cy5uE0lsYs27PiwM/dDU15gdLCA+VJTrFbHT9cOFXgHY3KHYIXElpkRC6eIw3KlP+VI3QSKyC3asdffeO9b8lK5b5S2shIrs/PsgBpXFp7bJ2OB9VtuQOqNbgLdV6MfEwrI2NjYZz5zRvzdMgZlrW/51Pigk7buODevJmN9dJEY6ydn1oJo6lEn3Ku+wLH3jwvxBMkNkqgrQ55iAde+/v7+1Xo82j7Xx3n1JpyC58yTupRF3L18Lj5knoKfVIn5X6LP4Lr1OpMC1+K6fDDp3zqcMga8m2pw3yrjLUvTld6bOES4s7et4viTWPdocM8Dl4+oH4Hzfyu1Is/SbnC7Z95uKwiKNscCfDZTASpABagAFaACVIAKUAEqQAWowMxRoNXP6VoWfHa9Gcdnbaui7WN8Rl4f67O55tN18DyG4zdcG/a492Dn7g5wHtUxMeuHXsnw+7RsjmCOqV31sfHsu5UvZzH+I5XAV5atmg6xr0BGeyuzQgDMiPpDPuzbf4otz1uquGF+NE2ObM9yN3m06TqfFduyaNwat7du+S3bWVww3AkwZThMHXYC6xf6n5NBWH3yU9+pFSJ9ISVo+xy3Nhzcp4QXWJs0not1L90WWn9nQzZwfFe+4WVYv2wIH1OGV9TXypmlRXRiFyWj27H3PeKM77Y9gGHv6X6fOnivQdweia3iRvwWxD7vGy9xuty/Obtw4bVZ51ZRtKKL2kf3nUZatct2xXsZoCcVWq9juHBg7GrUO1JUGSZjdKm4H8L4t3RfWV2NC/7GS6/wInOL2sV0l5ul8aaXd4h3k4hbxzSM+Qnjn3UY2gjBLCtV/CMhhjtMnStwnijj0X3acN1ep255qTdd6SK8FrGOAIKDsRcAa6gKA7eGn3FruMzFNeEWXh+MQy9ma+atzn7UuRWt6KJ2vdIdjtVqN13pWoAmdSX6CR+cGIZrHrzzv08f59V7Dc+LCW2zWu1mpuMd8m43SZRvhk42lXg52fDO//1UcoqRh5npuDTe5RLEqtsYI1FfDFza/+jGPuM75lyLMzMdZnfeL2C1TLQpKniXdvm2t8V7eFu2oC2uGDxmpsdIrgkGTrZGGywh3BOj2b0h8dMdO2tNx+3lorbEXb4l29kWVwweM9PxBu6YS3B4eHhdjEQDMO7pxh4OGHNOhZqZjnur2wLNBgcHv2lTUVzWP4zFh49qT8bCSgnHzHSIfyDWRHHV+MBhoTwZgolLvHvsufYLH9V2uMGYi+kmVmGCk9n+wr4GHWam65zwMarRaofmnTdKMOF8jVtSl/t57R8s+P6ESnJYtCH+lySr3s0uF/yYpanpskJwqV+HVTdQJ3GMC34XDt4/havOeIxZghPMPeQRtMrxbwNPCW/jcjIz2xAyNd1NHJfkrV0BxpyYIWJow+QE8h2v4zVO1Xjk68Q+0o27vipe9y9+OJuvj5vUscrN/ltkK/cqiH4cAiwUEbQh0qZL3A5ex9XhcWmripe4vFIbDkOHsYJz/zMz4pxh/yiMteD9Xh17V+XbtqIvVora5QsXqy9aZAKtmO7IIOpyFAeF2LdsYrhw4CT6FSfRpXJcVcbgPPo2LnIH8+/zhabvzYaxwnNPyqqcQ/rNL++SDIQ81BXzUWkrK12se5XF+PZhda90WDC/+2xK4cg5sTgXP5j1LzmWeb+Pcc/HtWG4m3kUUQslZMeUAoc3Z7f3Lct24zSY51Y6/mfFX3NPZGuX7sh+nwpihQpQASpABagAFaACVIAKUAEqQAWoABWgAlSAClABKkAFqAAVoAJUgApQASpABagAFaACVIAKUAEqQAWoABVopMB/D4TyAgRqoO4AAAAASUVORK5CYII=;" vertex="1" parent="0CfnM0hkbXZemsLm9H7N-64">
          <mxGeometry x="30" y="35" width="50" height="50" as="geometry" />
        </mxCell>
        <mxCell id="0CfnM0hkbXZemsLm9H7N-69" value="" style="rounded=0;whiteSpace=wrap;html=1;" vertex="1" parent="1">
          <mxGeometry x="1010" y="280" width="110" height="60" as="geometry" />
        </mxCell>
        <mxCell id="0CfnM0hkbXZemsLm9H7N-70" value="Thing" style="rounded=0;whiteSpace=wrap;html=1;fillColor=#000000;fontColor=#FFFFFF;fontSize=16;" vertex="1" parent="1">
          <mxGeometry x="1010" y="250" width="110" height="30" as="geometry" />
        </mxCell>
        <mxCell id="0CfnM0hkbXZemsLm9H7N-71" value="" style="rounded=0;whiteSpace=wrap;html=1;fillColor=#595959;fontColor=#FFFFFF;align=left;verticalAlign=top;" vertex="1" parent="1">
          <mxGeometry x="1020" y="290" width="90" height="40" as="geometry" />
        </mxCell>
        <mxCell id="0CfnM0hkbXZemsLm9H7N-72" value="" style="shape=image;verticalLabelPosition=bottom;labelBackgroundColor=default;verticalAlign=top;aspect=fixed;imageAspect=0;image=data:image/png,iVBORw0KGgoAAAANSUhEUgAAAH0AAAB9CAYAAACPgGwlAAAAAXNSR0IArs4c6QAAAIRlWElmTU0AKgAAAAgABQESAAMAAAABAAEAAAEaAAUAAAABAAAASgEbAAUAAAABAAAAUgEoAAMAAAABAAIAAIdpAAQAAAABAAAAWgAAAAAAAADcAAAAAQAAANwAAAABAAOgAQADAAAAAQABAACgAgAEAAAAAQAAAH2gAwAEAAAAAQAAAH0AAAAAjw60YAAAAAlwSFlzAAAh1QAAIdUBBJy0nQAACLNJREFUeAHtXFuoVUUYXuccPYZhmualUsqkwEAIuhDR7aF6MIooJKKLFAQ+RT0EPgg9hJAVha8SQZBQGUXQgw/1UL1FZPXQBdLSojRNzVPauffNdv/H3926zKw1/zpzjt+Gw8ya+ef7/vm+NWvtPXvtk2V8UQEqQAWoABWgAlSAClABKkAFqAAVoAJUgApQASpABagAFaACVIAKUAEqQAWoABWgAlSAClABKkAFqAAVoAJUgApQASpABWaMAn1WmU7iZYHdh1cVrgH3IGhHq3hdfyxun3n65JMX05/XOJPbxsfHvzTIf8QHM5bhjismlk/uUWJc0u4VBawrgg9eh3QaeXHSnWw6Z2BMxJ6HzmnWrXQ9uemoDwwMzG/KCwxTX0zBm06e420UoOk2uiaNStOTtscmOZpuo2vSqDQ9aXtskqPpNromjUrTk7bHJjmabqNr0qg0PWl7bJKj6Ta6Jo1K05O2xyY5mm6ja9KoND1pe2ySo+k2uiaNStOTtscmuVlr+tDQ0DIbyfJRJyYmvnI9Pg965COcaVUY68+0xqtVPm9Wl0olXhcid1zVs2PgdXOayB3coLGK10HHnrMPZ50pzbqVDqHcI1oL64iRNwYr+G9f8V3cyMjI1Xk4gW0rfDkDcRlOBagAFaACVIAKUAEqQAWoABWgAmkrYLY5kzft7sZJXlduGz6rRvtZlCPw4Y/NKRMr4rbiE968spXNGbdT5V5IwO2Uef+dHjU5id92fZuXvE+bYPjySzw4X/PBL4oBzlzBKuPuiSmCi9puutIxIXdSjcfKOGSXCtxPg/fVptwhnMLVNVkOg0rsAI7it2yDQYNSCpazGKtmZ5O8BAflCz44iFsgY8C91WdMb4yMd2VvX9mxHof6eWWxug+x1+mxum/G1DGBG2USMZIOwZJYlFc24VY4V/ng4AQ7KGN84vNiZHzThZKHbd4myaNcFINM8KqwEDfgG1uF5fpDsEJiy7hj4RRxmL+Rwz3xeBG5UftYF3eNEX4uLFbm164D92Sv/1qRC9JtBEbnlgLz7y+LS64v9tnqi+cb5yuYL55vXGxeXzwdZ77SNRnraShA09PwodUsaHqrcqdBRtPT8KHVLGh6q3KnQUbT0/Ch1Sxoeqtyp0FG09PwodUsZq3p2Cy5uE0lsYs27PiwM/dDU15gdLCA+VJTrFbHT9cOFXgHY3KHYIXElpkRC6eIw3KlP+VI3QSKyC3asdffeO9b8lK5b5S2shIrs/PsgBpXFp7bJ2OB9VtuQOqNbgLdV6MfEwrI2NjYZz5zRvzdMgZlrW/51Pigk7buODevJmN9dJEY6ydn1oJo6lEn3Ku+wLH3jwvxBMkNkqgrQ55iAde+/v7+1Xo82j7Xx3n1JpyC58yTupRF3L18Lj5knoKfVIn5X6LP4Lr1OpMC1+K6fDDp3zqcMga8m2pw3yrjLUvTld6bOES4s7et4viTWPdocM8Dl4+oH4Hzfyu1Is/SbnC7Z95uKwiKNscCfDZTASpABagAFaACVIAKUAEqQAWowMxRoNXP6VoWfHa9Gcdnbaui7WN8Rl4f67O55tN18DyG4zdcG/a492Dn7g5wHtUxMeuHXsnw+7RsjmCOqV31sfHsu5UvZzH+I5XAV5atmg6xr0BGeyuzQgDMiPpDPuzbf4otz1uquGF+NE2ObM9yN3m06TqfFduyaNwat7du+S3bWVww3AkwZThMHXYC6xf6n5NBWH3yU9+pFSJ9ISVo+xy3Nhzcp4QXWJs0not1L90WWn9nQzZwfFe+4WVYv2wIH1OGV9TXypmlRXRiFyWj27H3PeKM77Y9gGHv6X6fOnivQdweia3iRvwWxD7vGy9xuty/Obtw4bVZ51ZRtKKL2kf3nUZatct2xXsZoCcVWq9juHBg7GrUO1JUGSZjdKm4H8L4t3RfWV2NC/7GS6/wInOL2sV0l5ul8aaXd4h3k4hbxzSM+Qnjn3UY2gjBLCtV/CMhhjtMnStwnijj0X3acN1ep255qTdd6SK8FrGOAIKDsRcAa6gKA7eGn3FruMzFNeEWXh+MQy9ma+atzn7UuRWt6KJ2vdIdjtVqN13pWoAmdSX6CR+cGIZrHrzzv08f59V7Dc+LCW2zWu1mpuMd8m43SZRvhk42lXg52fDO//1UcoqRh5npuDTe5RLEqtsYI1FfDFza/+jGPuM75lyLMzMdZnfeL2C1TLQpKniXdvm2t8V7eFu2oC2uGDxmpsdIrgkGTrZGGywh3BOj2b0h8dMdO2tNx+3lorbEXb4l29kWVwweM9PxBu6YS3B4eHhdjEQDMO7pxh4OGHNOhZqZjnur2wLNBgcHv2lTUVzWP4zFh49qT8bCSgnHzHSIfyDWRHHV+MBhoTwZgolLvHvsufYLH9V2uMGYi+kmVmGCk9n+wr4GHWam65zwMarRaofmnTdKMOF8jVtSl/t57R8s+P6ESnJYtCH+lySr3s0uF/yYpanpskJwqV+HVTdQJ3GMC34XDt4/havOeIxZghPMPeQRtMrxbwNPCW/jcjIz2xAyNd1NHJfkrV0BxpyYIWJow+QE8h2v4zVO1Xjk68Q+0o27vipe9y9+OJuvj5vUscrN/ltkK/cqiH4cAiwUEbQh0qZL3A5ex9XhcWmripe4vFIbDkOHsYJz/zMz4pxh/yiMteD9Xh17V+XbtqIvVora5QsXqy9aZAKtmO7IIOpyFAeF2LdsYrhw4CT6FSfRpXJcVcbgPPo2LnIH8+/zhabvzYaxwnNPyqqcQ/rNL++SDIQ81BXzUWkrK12se5XF+PZhda90WDC/+2xK4cg5sTgXP5j1LzmWeb+Pcc/HtWG4m3kUUQslZMeUAoc3Z7f3Lct24zSY51Y6/mfFX3NPZGuX7sh+nwpihQpQASpABagAFaACVIAKUAEqQAWoABWgAlSAClABKkAFqAAVoAJUgApQASpABagAFaACVIAKUAEqQAWoABVopMB/D4TyAgRqoO4AAAAASUVORK5CYII=;" vertex="1" parent="1">
          <mxGeometry x="1040" y="285" width="50" height="50" as="geometry" />
        </mxCell>
        <mxCell id="0CfnM0hkbXZemsLm9H7N-73" style="edgeStyle=none;rounded=0;orthogonalLoop=1;jettySize=auto;html=1;startArrow=oval;startFill=1;endArrow=block;endFill=1;strokeWidth=5;strokeColor=#E35500;entryX=0;entryY=0.25;entryDx=0;entryDy=0;exitX=1;exitY=0.25;exitDx=0;exitDy=0;" edge="1" parent="1" source="0CfnM0hkbXZemsLm9H7N-71" target="0CfnM0hkbXZemsLm9H7N-67">
          <mxGeometry relative="1" as="geometry">
            <mxPoint x="790" y="260" as="sourcePoint" />
            <mxPoint x="860" y="320" as="targetPoint" />
            <Array as="points" />
          </mxGeometry>
        </mxCell>
        <mxCell id="0CfnM0hkbXZemsLm9H7N-74" style="edgeStyle=none;shape=connector;rounded=0;orthogonalLoop=1;jettySize=auto;html=1;entryX=1;entryY=0.75;entryDx=0;entryDy=0;labelBackgroundColor=default;strokeColor=#E35500;strokeWidth=5;align=center;verticalAlign=middle;fontFamily=Helvetica;fontSize=11;fontColor=default;startArrow=oval;startFill=1;endArrow=block;endFill=1;exitX=0;exitY=0.75;exitDx=0;exitDy=0;" edge="1" parent="1" source="0CfnM0hkbXZemsLm9H7N-67" target="0CfnM0hkbXZemsLm9H7N-71">
          <mxGeometry relative="1" as="geometry" />
        </mxCell>
      </root>
    </mxGraphModel>
  </diagram>
</mxfile>
